<svg width="349" height="215" viewBox="0 0 349 215" fill="none" xmlns="http://www.w3.org/2000/svg">
<path d="M3.2 77V18.2H11.28L19.28 48.84L20 51.56H20.48V18.2H28.4V77H21.12L12.32 46.36L11.6 43.64H11.12V77H3.2ZM32.9625 77L41.8425 18.2H52.4025L61.2825 77H52.8825L51.2825 65H42.9625L41.3625 77H32.9625ZM44.1625 55.88H50.0825L47.6025 36.12L47.3625 33H46.8825L46.6425 36.12L44.1625 55.88ZM67.6319 77V27.08H59.4719V18.2H84.4319V27.08H76.2719V77H67.6319ZM99.9544 77.64C97.5277 77.64 95.4477 77.08 93.7144 75.96C92.0077 74.84 90.701 73.32 89.7944 71.4C88.8877 69.48 88.4344 67.32 88.4344 64.92V18.2H97.0744V64.92C97.0744 66.0667 97.301 67.08 97.7544 67.96C98.2077 68.8133 98.941 69.24 99.9544 69.24C101.021 69.24 101.768 68.8133 102.194 67.96C102.621 67.08 102.834 66.0667 102.834 64.92V18.2H111.474V64.92C111.474 67.32 111.008 69.48 110.074 71.4C109.168 73.32 107.848 74.84 106.114 75.96C104.408 77.08 102.354 77.64 99.9544 77.64ZM117.888 77V18.2H126.528C131.701 18.2 135.514 19.64 137.968 22.52C140.421 25.3733 141.648 29.5867 141.648 35.16C141.648 38.4667 141.061 41.3333 139.888 43.76C138.741 46.16 137.341 47.92 135.688 49.04L141.568 77H132.928L128.048 52.2H126.528V77H117.888ZM126.528 44.2C128.128 44.2 129.394 43.8533 130.328 43.16C131.261 42.44 131.928 41.4267 132.328 40.12C132.728 38.8133 132.928 37.2667 132.928 35.48C132.928 32.68 132.461 30.5333 131.528 29.04C130.621 27.52 128.954 26.76 126.528 26.76V44.2ZM146.481 77V18.2H166.241V27.08H155.121V42.92H163.121V51.56H155.121V68.12H166.241V77H146.481Z" fill="#44AC3B"/>
<path d="M162.2 202V143.2H182.76V152.08H170.84V167.52H178.84V176.4H170.84V202H162.2ZM197.783 202.64C195.356 202.64 193.276 202.08 191.543 200.96C189.836 199.84 188.529 198.32 187.623 196.4C186.716 194.48 186.263 192.32 186.263 189.92V143.2H194.903V189.92C194.903 191.067 195.129 192.08 195.583 192.96C196.036 193.813 196.769 194.24 197.783 194.24C198.849 194.24 199.596 193.813 200.023 192.96C200.449 192.08 200.663 191.067 200.663 189.92V143.2H209.303V189.92C209.303 192.32 208.836 194.48 207.903 196.4C206.996 198.32 205.676 199.84 203.943 200.96C202.236 202.08 200.183 202.64 197.783 202.64ZM221.476 202V152.08H213.316V143.2H238.276V152.08H230.116V202H221.476ZM253.798 202.64C251.371 202.64 249.291 202.08 247.558 200.96C245.851 199.84 244.545 198.32 243.638 196.4C242.731 194.48 242.278 192.32 242.278 189.92V143.2H250.918V189.92C250.918 191.067 251.145 192.08 251.598 192.96C252.051 193.813 252.785 194.24 253.798 194.24C254.865 194.24 255.611 193.813 256.038 192.96C256.465 192.08 256.678 191.067 256.678 189.92V143.2H265.318V189.92C265.318 192.32 264.851 194.48 263.918 196.4C263.011 198.32 261.691 199.84 259.958 200.96C258.251 202.08 256.198 202.64 253.798 202.64ZM271.731 202V143.2H280.371C285.545 143.2 289.358 144.64 291.811 147.52C294.265 150.373 295.491 154.587 295.491 160.16C295.491 163.467 294.905 166.333 293.731 168.76C292.585 171.16 291.185 172.92 289.531 174.04L295.411 202H286.771L281.891 177.2H280.371V202H271.731ZM280.371 169.2C281.971 169.2 283.238 168.853 284.171 168.16C285.105 167.44 285.771 166.427 286.171 165.12C286.571 163.813 286.771 162.267 286.771 160.48C286.771 157.68 286.305 155.533 285.371 154.04C284.465 152.52 282.798 151.76 280.371 151.76V169.2ZM300.325 202V143.2H320.085V152.08H308.965V167.92H316.965V176.56H308.965V193.12H320.085V202H300.325Z" fill="#2057A9"/>
<path d="M146.883 87.5234C146.987 87.6536 147.039 87.8359 147.039 88.0703C147.039 88.513 146.948 88.9557 146.766 89.3984C146.609 89.8151 146.427 90.1927 146.219 90.5312C146.01 90.8698 145.815 91.1432 145.633 91.3516C145.477 91.5599 145.398 91.6771 145.398 91.7031C145.398 91.7812 145.398 91.8724 145.398 91.9766C145.424 92.0807 145.438 92.1719 145.438 92.25C145.438 92.3802 145.385 92.5234 145.281 92.6797C145.203 92.8359 145.112 92.9792 145.008 93.1094C144.904 93.2396 144.799 93.3568 144.695 93.4609C144.591 93.5651 144.539 93.6302 144.539 93.6562C144.435 93.9167 144.383 94.2031 144.383 94.5156C144.383 94.8021 144.37 95.0885 144.344 95.375C144.318 95.6354 144.24 95.8828 144.109 96.1172C143.979 96.3255 143.732 96.4818 143.367 96.5859C143.263 96.4036 143.211 96.1953 143.211 95.9609C143.211 95.7526 143.237 95.5312 143.289 95.2969C143.341 95.0365 143.367 94.776 143.367 94.5156V94.2422C143.185 93.9036 143.042 93.5391 142.938 93.1484C142.859 92.7578 142.742 92.4062 142.586 92.0938C142.43 91.7812 142.208 91.5208 141.922 91.3125C141.635 91.1042 141.219 91 140.672 91C140.047 91 139.396 91.0651 138.719 91.1953C138.042 91.2995 137.456 91.3516 136.961 91.3516C136.284 91.3516 135.594 91.2604 134.891 91.0781C134.188 90.8958 133.549 90.8047 132.977 90.8047C132.299 90.8047 131.805 91.1042 131.492 91.7031C131.18 92.3021 130.958 93.1484 130.828 94.2422C130.776 94.5286 130.672 94.8411 130.516 95.1797C130.385 95.4922 130.294 95.8568 130.242 96.2734C130.112 97.0547 130.073 97.862 130.125 98.6953C130.177 99.5286 130.125 100.284 129.969 100.961C129.865 101.43 129.747 101.807 129.617 102.094C129.513 102.38 129.409 102.654 129.305 102.914C129.201 103.174 129.109 103.487 129.031 103.852C128.979 104.216 128.953 104.711 128.953 105.336C128.953 105.622 128.966 105.87 128.992 106.078C129.018 106.286 129.057 106.43 129.109 106.508C129.214 106.638 129.435 106.755 129.773 106.859C130.112 106.964 130.529 107.055 131.023 107.133C131.518 107.185 132.052 107.237 132.625 107.289C133.224 107.315 133.81 107.328 134.383 107.328C135.008 107.328 135.594 107.315 136.141 107.289C136.714 107.237 137.182 107.172 137.547 107.094C137.859 107.016 138.133 106.885 138.367 106.703C138.602 106.495 138.81 106.339 138.992 106.234C139.148 106.13 139.305 106.078 139.461 106.078C139.617 106.078 139.76 106.026 139.891 105.922C140.021 105.792 140.164 105.622 140.32 105.414C140.477 105.18 140.659 104.958 140.867 104.75C141.076 104.516 141.31 104.32 141.57 104.164C141.857 103.982 142.182 103.891 142.547 103.891H142.781C142.703 104.646 142.521 105.31 142.234 105.883C141.948 106.43 141.583 106.938 141.141 107.406C140.724 107.849 140.255 108.266 139.734 108.656C139.214 109.021 138.68 109.372 138.133 109.711C137.846 109.893 137.521 110.128 137.156 110.414C136.818 110.701 136.466 110.948 136.102 111.156H135.945C135.685 111.156 135.398 111.117 135.086 111.039C134.773 110.935 134.435 110.883 134.07 110.883H133.406C133.12 110.883 132.898 110.87 132.742 110.844C132.612 110.818 132.469 110.805 132.312 110.805C132.13 110.805 131.909 110.818 131.648 110.844C131.414 110.87 131.049 110.883 130.555 110.883C130.294 110.883 130.06 110.883 129.852 110.883C129.643 110.857 129.474 110.844 129.344 110.844C129.031 110.844 128.771 111.117 128.562 111.664C128.354 112.211 128.172 112.914 128.016 113.773C127.859 114.607 127.716 115.544 127.586 116.586C127.482 117.602 127.391 118.591 127.312 119.555C127.26 120.492 127.208 121.352 127.156 122.133C127.104 122.888 127.065 123.422 127.039 123.734C127.039 123.786 126.987 124.047 126.883 124.516C126.779 124.984 126.661 125.531 126.531 126.156C126.427 126.755 126.323 127.354 126.219 127.953C126.141 128.526 126.102 128.969 126.102 129.281C126.102 129.464 126.128 129.568 126.18 129.594C126.258 129.594 126.414 129.594 126.648 129.594C126.857 129.594 127.091 129.594 127.352 129.594C127.638 129.568 127.924 129.555 128.211 129.555C128.784 129.555 129.305 129.607 129.773 129.711C130.268 129.815 130.516 130.076 130.516 130.492C130.516 130.727 130.411 130.909 130.203 131.039C129.995 131.195 129.721 131.312 129.383 131.391C129.044 131.469 128.654 131.521 128.211 131.547C127.794 131.573 127.365 131.586 126.922 131.586H124.93C124.174 131.586 123.367 131.677 122.508 131.859C121.674 132.068 120.828 132.172 119.969 132.172C119.708 132.172 119.461 132.159 119.227 132.133C119.018 132.133 118.81 132.133 118.602 132.133C118.055 132.133 117.495 132.211 116.922 132.367C116.349 132.549 115.802 132.641 115.281 132.641C114.969 132.641 114.708 132.589 114.5 132.484C114.5 132.042 114.721 131.664 115.164 131.352C115.633 131.065 116.271 130.922 117.078 130.922H117.742C118.602 130.922 119.227 130.635 119.617 130.062C120.008 129.464 120.281 128.747 120.438 127.914C120.594 127.055 120.672 126.143 120.672 125.18C120.698 124.19 120.776 123.305 120.906 122.523C120.958 122.237 121.076 121.951 121.258 121.664C121.44 121.378 121.531 121.052 121.531 120.688C121.531 120.505 121.518 120.336 121.492 120.18C121.466 119.997 121.453 119.828 121.453 119.672C121.453 119.464 121.557 119.294 121.766 119.164C121.974 119.008 122.078 118.865 122.078 118.734C122.208 118.37 122.26 118.057 122.234 117.797C122.208 117.51 122.26 117.146 122.391 116.703C122.469 116.469 122.534 116.156 122.586 115.766C122.664 115.375 122.729 114.958 122.781 114.516C122.859 114.073 122.911 113.617 122.938 113.148C122.99 112.68 123.016 112.25 123.016 111.859C123.016 111.729 122.99 111.625 122.938 111.547C122.911 111.469 122.794 111.43 122.586 111.43C122.117 111.43 121.74 111.508 121.453 111.664C121.167 111.82 120.893 112.003 120.633 112.211C120.398 112.393 120.125 112.562 119.812 112.719C119.5 112.875 119.096 112.953 118.602 112.953C118.497 112.953 118.406 112.94 118.328 112.914C118.276 112.862 118.25 112.758 118.25 112.602C118.25 112.211 118.38 111.846 118.641 111.508C118.927 111.143 119.253 110.831 119.617 110.57C119.982 110.284 120.333 110.049 120.672 109.867C121.036 109.659 121.31 109.503 121.492 109.398C121.57 109.372 121.701 109.307 121.883 109.203C122.091 109.073 122.299 108.943 122.508 108.812C122.742 108.682 122.951 108.539 123.133 108.383C123.315 108.227 123.445 108.083 123.523 107.953C123.576 107.823 123.615 107.628 123.641 107.367C123.667 107.081 123.68 106.781 123.68 106.469C123.706 106.13 123.719 105.792 123.719 105.453C123.745 105.089 123.784 104.763 123.836 104.477C123.966 103.643 124.096 102.901 124.227 102.25C124.357 101.573 124.422 101.013 124.422 100.57C124.422 100.258 124.409 99.9323 124.383 99.5938C124.383 99.2552 124.383 98.9036 124.383 98.5391C124.383 97.5495 124.461 96.5599 124.617 95.5703C124.773 94.5547 124.852 93.6693 124.852 92.9141C124.852 92.4714 124.799 92.1458 124.695 91.9375C124.591 91.7031 124.461 91.5339 124.305 91.4297C124.174 91.3255 124.057 91.2604 123.953 91.2344C123.849 91.1823 123.797 91.1172 123.797 91.0391H123.758C123.523 91.0391 123.263 91.1432 122.977 91.3516C122.716 91.5339 122.443 91.625 122.156 91.625C121.766 91.625 121.362 91.5859 120.945 91.5078C120.529 91.4036 120.32 91.1693 120.32 90.8047C120.32 90.1536 120.555 89.7891 121.023 89.7109C121.518 89.6328 122.143 89.5938 122.898 89.5938C123.159 89.5938 123.432 89.6068 123.719 89.6328C124.005 89.6328 124.305 89.6328 124.617 89.6328C125.346 89.6328 126.232 89.5547 127.273 89.3984C128.341 89.2422 129.435 89.0729 130.555 88.8906C131.701 88.6823 132.82 88.5 133.914 88.3438C135.034 88.1875 136.023 88.1094 136.883 88.1094C137.247 88.1094 137.573 88.1224 137.859 88.1484C138.172 88.1484 138.458 88.1484 138.719 88.1484C139.057 88.1484 139.513 88.1094 140.086 88.0312C140.659 87.9271 141.271 87.8229 141.922 87.7188C142.599 87.5885 143.302 87.4844 144.031 87.4062C144.76 87.3021 145.464 87.25 146.141 87.25C146.479 87.25 146.727 87.3411 146.883 87.5234ZM185.477 107.758C185.398 108.773 185.242 109.75 185.008 110.688C184.773 111.599 184.461 112.51 184.07 113.422C183.706 114.333 183.25 115.284 182.703 116.273C182.156 117.237 181.531 118.279 180.828 119.398C180.776 119.529 180.737 119.685 180.711 119.867C180.685 120.023 180.633 120.167 180.555 120.297C180.372 120.505 180.125 120.701 179.812 120.883C179.5 121.065 179.253 121.26 179.07 121.469C178.966 121.599 178.914 121.742 178.914 121.898C178.914 122.055 178.875 122.198 178.797 122.328C178.667 122.51 178.458 122.706 178.172 122.914C177.885 123.096 177.599 123.292 177.312 123.5C177.208 123.604 177.143 123.734 177.117 123.891C177.117 124.047 177.052 124.125 176.922 124.125C176.87 124.125 176.805 124.125 176.727 124.125C176.648 124.099 176.583 124.086 176.531 124.086C176.375 124.086 176.245 124.216 176.141 124.477C176.062 124.711 175.971 124.88 175.867 124.984C175.737 125.062 175.581 125.102 175.398 125.102C175.242 125.102 175.099 125.154 174.969 125.258C174.552 125.57 174.188 125.922 173.875 126.312C173.562 126.677 173.159 127.003 172.664 127.289C172.534 127.341 172.378 127.38 172.195 127.406C172.039 127.432 171.909 127.497 171.805 127.602C171.674 127.654 171.596 127.771 171.57 127.953C171.57 128.109 171.505 128.188 171.375 128.188C171.323 128.188 171.258 128.188 171.18 128.188C171.102 128.161 171.036 128.148 170.984 128.148C170.854 128.148 170.763 128.253 170.711 128.461C170.685 128.669 170.607 128.773 170.477 128.773C170.424 128.773 170.359 128.773 170.281 128.773C170.229 128.747 170.177 128.734 170.125 128.734C169.969 128.734 169.839 128.865 169.734 129.125C169.656 129.385 169.565 129.555 169.461 129.633C169.201 129.815 168.875 129.906 168.484 129.906C168.12 129.88 167.768 129.984 167.43 130.219C167.299 130.271 167.195 130.362 167.117 130.492C167.065 130.596 166.961 130.688 166.805 130.766C166.31 131.052 165.737 131.286 165.086 131.469C164.435 131.677 163.693 131.781 162.859 131.781C162.365 131.781 161.844 131.742 161.297 131.664C161.062 131.43 160.789 131.26 160.477 131.156C160.164 131.078 159.826 131 159.461 130.922C159.122 130.818 158.758 130.701 158.367 130.57C157.977 130.44 157.586 130.219 157.195 129.906C156.831 129.62 156.492 129.32 156.18 129.008C155.893 128.669 155.555 128.383 155.164 128.148C154.956 128.044 154.734 127.966 154.5 127.914C154.292 127.836 154.122 127.732 153.992 127.602C153.862 127.471 153.81 127.328 153.836 127.172C153.862 127.016 153.81 126.859 153.68 126.703C153.628 126.625 153.523 126.573 153.367 126.547C153.237 126.521 153.146 126.469 153.094 126.391C152.964 126.208 152.872 126.026 152.82 125.844C152.768 125.635 152.677 125.44 152.547 125.258C152.234 124.867 151.896 124.555 151.531 124.32C151.193 124.06 150.945 123.786 150.789 123.5C150.659 123.266 150.516 122.94 150.359 122.523C150.229 122.081 150.086 121.612 149.93 121.117C149.799 120.596 149.656 120.089 149.5 119.594C149.344 119.073 149.188 118.63 149.031 118.266C148.589 117.302 148.367 115.974 148.367 114.281C148.367 113.604 148.393 112.875 148.445 112.094C148.497 111.312 148.576 110.531 148.68 109.75C148.81 108.969 148.94 108.214 149.07 107.484C149.227 106.729 149.409 106.039 149.617 105.414C149.773 104.893 149.865 104.372 149.891 103.852C149.917 103.305 150.021 102.849 150.203 102.484C150.229 102.406 150.307 102.328 150.438 102.25C150.594 102.146 150.711 102.029 150.789 101.898C150.867 101.716 150.906 101.573 150.906 101.469C150.906 101.339 150.958 101.195 151.062 101.039C151.115 100.935 151.206 100.831 151.336 100.727C151.492 100.622 151.596 100.531 151.648 100.453C151.727 100.323 151.766 100.18 151.766 100.023C151.792 99.8672 151.857 99.724 151.961 99.5938C152.091 99.3854 152.273 99.1901 152.508 99.0078C152.768 98.8255 152.964 98.6302 153.094 98.4219C153.198 98.2917 153.25 98.1484 153.25 97.9922C153.25 97.8099 153.302 97.6536 153.406 97.5234C153.458 97.4453 153.549 97.4062 153.68 97.4062C153.836 97.3802 153.94 97.3281 153.992 97.25C154.096 97.1198 154.148 96.9766 154.148 96.8203C154.148 96.6641 154.201 96.5208 154.305 96.3906C154.461 96.1562 154.708 95.8958 155.047 95.6094C155.411 95.2969 155.737 94.9714 156.023 94.6328C156.544 94.0599 157.065 93.513 157.586 92.9922C158.133 92.4714 158.693 91.9766 159.266 91.5078C159.865 91.013 160.49 90.5312 161.141 90.0625C161.818 89.5677 162.547 89.0469 163.328 88.5C163.849 88.0833 164.383 87.7057 164.93 87.3672C165.372 87.0807 165.867 86.7943 166.414 86.5078C166.961 86.2214 167.482 86.013 167.977 85.8828C168.003 85.8828 168.029 85.8438 168.055 85.7656C168.081 85.6615 168.159 85.6094 168.289 85.6094C168.523 85.5573 168.862 85.5182 169.305 85.4922C169.747 85.4401 170.203 85.4141 170.672 85.4141C171.401 85.4141 172.065 85.4792 172.664 85.6094C173.159 85.7396 173.667 85.8438 174.188 85.9219C174.734 86 175.281 86.1172 175.828 86.2734C176.401 86.4036 176.974 86.599 177.547 86.8594C178.146 87.0938 178.745 87.4453 179.344 87.9141C179.474 88.0182 179.578 88.1875 179.656 88.4219C179.76 88.6302 179.956 88.7474 180.242 88.7734C180.529 88.7995 180.763 88.9297 180.945 89.1641C181.154 89.3984 181.323 89.6979 181.453 90.0625C181.609 90.401 181.74 90.7786 181.844 91.1953C181.974 91.5859 182.117 91.9505 182.273 92.2891C182.326 92.3672 182.56 92.8099 182.977 93.6172C183.419 94.4245 183.862 95.4401 184.305 96.6641C184.383 96.8724 184.435 97.1198 184.461 97.4062C184.487 97.6927 184.539 97.9271 184.617 98.1094C184.669 98.2656 184.76 98.4089 184.891 98.5391C185.047 98.6432 185.151 98.7995 185.203 99.0078C185.333 99.6589 185.438 100.466 185.516 101.43C185.594 102.393 185.633 103.409 185.633 104.477C185.633 105.023 185.62 105.583 185.594 106.156C185.568 106.703 185.529 107.237 185.477 107.758ZM180.828 103.383C180.75 102.732 180.555 102.081 180.242 101.43C179.93 100.753 179.734 100.232 179.656 99.8672C179.5 99.2422 179.279 98.6953 178.992 98.2266C178.706 97.7318 178.406 97.2891 178.094 96.8984C177.807 96.5078 177.547 96.1693 177.312 95.8828C177.104 95.5703 177 95.2839 177 95.0234C177 94.9453 177 94.8542 177 94.75C177.026 94.6458 177.039 94.5547 177.039 94.4766C177.039 94.3724 176.883 94.151 176.57 93.8125C176.258 93.474 175.919 93.1615 175.555 92.875C175.372 92.7448 175.138 92.6667 174.852 92.6406C174.565 92.5885 174.318 92.4714 174.109 92.2891C173.901 92.1328 173.732 91.9245 173.602 91.6641C173.471 91.4036 173.341 91.2214 173.211 91.1172C172.716 90.7266 172.026 90.4271 171.141 90.2188C170.255 90.0104 169.396 89.9062 168.562 89.9062C168.276 89.9062 167.964 89.9323 167.625 89.9844C167.286 90.0104 167.117 90.1016 167.117 90.2578C166.18 90.388 165.385 90.5312 164.734 90.6875C164.109 90.8438 163.562 91.026 163.094 91.2344C162.651 91.4167 162.26 91.625 161.922 91.8594C161.609 92.0938 161.297 92.3411 160.984 92.6016C160.854 92.6797 160.75 92.7708 160.672 92.875C160.62 92.9792 160.529 93.0703 160.398 93.1484C160.112 93.3568 159.839 93.513 159.578 93.6172C159.344 93.7214 159.135 93.8646 158.953 94.0469C158.823 94.1771 158.758 94.3203 158.758 94.4766C158.784 94.6328 158.758 94.776 158.68 94.9062C158.576 95.0365 158.419 95.1406 158.211 95.2188C158.003 95.2708 157.859 95.362 157.781 95.4922C157.703 95.6224 157.638 95.7786 157.586 95.9609C157.56 96.1432 157.521 96.2865 157.469 96.3906C157.078 97.25 156.688 98.0182 156.297 98.6953C155.932 99.3464 155.646 99.9323 155.438 100.453C155.281 100.844 155.151 101.365 155.047 102.016C154.943 102.667 154.852 103.357 154.773 104.086C154.721 104.789 154.669 105.492 154.617 106.195C154.591 106.872 154.565 107.445 154.539 107.914C154.539 108.07 154.539 108.188 154.539 108.266C154.565 108.318 154.578 108.409 154.578 108.539V108.891C154.604 109.177 154.63 109.424 154.656 109.633C154.682 109.815 154.708 109.984 154.734 110.141C154.76 110.271 154.786 110.401 154.812 110.531C154.839 110.661 154.852 110.818 154.852 111C154.852 111.052 154.839 111.156 154.812 111.312C154.786 111.443 154.708 111.625 154.578 111.859C154.604 112.146 154.695 112.432 154.852 112.719C155.008 113.005 155.112 113.292 155.164 113.578C155.216 113.865 155.242 114.125 155.242 114.359C155.242 114.568 155.242 114.776 155.242 114.984V115.688C155.242 116.078 155.281 116.365 155.359 116.547C155.464 116.729 155.581 117.003 155.711 117.367C155.815 117.654 155.88 117.94 155.906 118.227C155.932 118.513 155.971 118.721 156.023 118.852C156.102 119.034 156.232 119.164 156.414 119.242C156.622 119.32 156.792 119.477 156.922 119.711C157.052 119.919 157.143 120.167 157.195 120.453C157.247 120.74 157.339 120.974 157.469 121.156C157.521 121.234 157.612 121.286 157.742 121.312C157.898 121.339 158.003 121.391 158.055 121.469C158.159 121.599 158.211 121.742 158.211 121.898C158.237 122.055 158.289 122.198 158.367 122.328C158.419 122.406 158.51 122.458 158.641 122.484C158.797 122.51 158.901 122.562 158.953 122.641C159.057 122.719 159.096 122.862 159.07 123.07C159.07 123.253 159.122 123.396 159.227 123.5C159.461 123.734 159.826 123.943 160.32 124.125C160.841 124.281 161.258 124.464 161.57 124.672C161.701 124.75 161.792 124.893 161.844 125.102C161.922 125.31 162.026 125.453 162.156 125.531C162.286 125.635 162.43 125.701 162.586 125.727C162.768 125.753 162.924 125.792 163.055 125.844C163.706 126.26 164.253 126.547 164.695 126.703C165.138 126.833 165.607 126.898 166.102 126.898C166.57 126.898 167.117 126.82 167.742 126.664C168.367 126.508 168.966 126.312 169.539 126.078C170.138 125.844 170.659 125.609 171.102 125.375C171.57 125.115 171.896 124.88 172.078 124.672C172.078 124.646 172.104 124.633 172.156 124.633C172.208 124.633 172.273 124.646 172.352 124.672C172.456 124.698 172.534 124.711 172.586 124.711C172.716 124.711 172.898 124.581 173.133 124.32C173.367 124.06 173.602 123.76 173.836 123.422C174.07 123.083 174.292 122.758 174.5 122.445C174.734 122.107 174.891 121.872 174.969 121.742C175.203 121.404 175.464 121.052 175.75 120.688C176.062 120.297 176.362 119.919 176.648 119.555C176.935 119.164 177.195 118.786 177.43 118.422C177.664 118.057 177.82 117.706 177.898 117.367C178.029 116.872 178.159 116.547 178.289 116.391C178.419 116.208 178.589 115.948 178.797 115.609C178.953 115.323 179.083 115.062 179.188 114.828C179.292 114.594 179.383 114.359 179.461 114.125C179.539 113.891 179.617 113.643 179.695 113.383C179.773 113.096 179.852 112.771 179.93 112.406C180.008 112.094 180.047 111.781 180.047 111.469C180.047 111.156 180.047 110.844 180.047 110.531C180.073 110.219 180.112 109.932 180.164 109.672C180.242 109.385 180.372 109.125 180.555 108.891C180.685 108.37 180.776 107.784 180.828 107.133C180.88 106.456 180.906 105.792 180.906 105.141C180.906 104.828 180.906 104.529 180.906 104.242C180.906 103.93 180.88 103.643 180.828 103.383ZM231.922 122.641C231.922 122.875 231.818 123.122 231.609 123.383C231.427 123.617 231.206 123.865 230.945 124.125C230.711 124.359 230.464 124.607 230.203 124.867C229.943 125.102 229.734 125.323 229.578 125.531C229.448 125.714 229.344 125.948 229.266 126.234C229.214 126.521 229.122 126.781 228.992 127.016C228.68 127.615 228.263 128.135 227.742 128.578C227.221 129.021 226.661 129.568 226.062 130.219C225.828 130.479 225.607 130.74 225.398 131C225.216 131.26 225.021 131.495 224.812 131.703C224.63 131.938 224.409 132.12 224.148 132.25C223.914 132.38 223.628 132.445 223.289 132.445C222.924 132.445 222.638 132.393 222.43 132.289C222.247 132.185 222.065 132.055 221.883 131.898C221.727 131.768 221.544 131.625 221.336 131.469C221.154 131.312 220.893 131.182 220.555 131.078C220.164 130.974 219.643 130.583 218.992 129.906C218.367 129.229 217.716 128.357 217.039 127.289C216.987 127.211 216.922 127.185 216.844 127.211C216.792 127.237 216.766 127.172 216.766 127.016C216.766 126.859 216.648 126.69 216.414 126.508C216.206 126.299 215.971 126.104 215.711 125.922C215.477 125.714 215.242 125.531 215.008 125.375C214.799 125.219 214.695 125.089 214.695 124.984C214.695 124.828 214.617 124.685 214.461 124.555C214.331 124.398 214.161 124.255 213.953 124.125C213.771 123.969 213.576 123.826 213.367 123.695C213.185 123.539 213.042 123.383 212.938 123.227C212.755 122.862 212.534 122.523 212.273 122.211C212.013 121.898 211.74 121.599 211.453 121.312C211.167 121 210.88 120.701 210.594 120.414C210.307 120.102 210.034 119.763 209.773 119.398C209.617 119.19 209.487 118.969 209.383 118.734C209.279 118.5 209.201 118.344 209.148 118.266C208.81 117.849 208.354 117.419 207.781 116.977C207.208 116.508 206.648 116.039 206.102 115.57C205.555 115.076 205.086 114.594 204.695 114.125C204.305 113.63 204.109 113.161 204.109 112.719C204.109 112.589 204.161 112.406 204.266 112.172C204.396 111.938 204.63 111.82 204.969 111.82C205.047 111.82 205.125 111.833 205.203 111.859C205.281 111.859 205.346 111.859 205.398 111.859C205.451 111.833 205.581 111.768 205.789 111.664C206.023 111.534 206.258 111.391 206.492 111.234C206.779 111.078 207.091 110.883 207.43 110.648C207.924 110.362 208.576 109.958 209.383 109.438C210.216 108.891 211.076 108.266 211.961 107.562C212.846 106.859 213.693 106.104 214.5 105.297C215.307 104.49 215.958 103.656 216.453 102.797C216.635 102.51 216.805 102.289 216.961 102.133C217.143 101.977 217.234 101.69 217.234 101.273C217.234 101.013 217.143 100.701 216.961 100.336C216.805 99.9714 216.583 99.6068 216.297 99.2422C216.036 98.8776 215.737 98.526 215.398 98.1875C215.086 97.8229 214.76 97.5104 214.422 97.25C214.214 97.0677 213.953 96.9245 213.641 96.8203C213.328 96.6901 213.094 96.5469 212.938 96.3906C212.703 96.0781 212.56 95.7135 212.508 95.2969C212.482 94.8542 212.339 94.5417 212.078 94.3594C211.922 94.2292 211.609 94.1771 211.141 94.2031C210.672 94.2031 210.307 94.151 210.047 94.0469C209.969 93.9948 209.878 93.9036 209.773 93.7734C209.695 93.6172 209.591 93.513 209.461 93.4609C209.305 93.3568 209.148 93.2917 208.992 93.2656C208.862 93.2396 208.719 93.2005 208.562 93.1484C208.51 93.1484 208.432 93.0833 208.328 92.9531C208.224 92.8229 208.055 92.6927 207.82 92.5625C207.586 92.4323 207.286 92.3151 206.922 92.2109C206.557 92.0807 206.102 92.0156 205.555 92.0156C205.19 92.0156 204.891 92.224 204.656 92.6406C204.448 93.0312 204.279 93.5521 204.148 94.2031C204.018 94.8281 203.927 95.5443 203.875 96.3516C203.823 97.1589 203.784 97.9792 203.758 98.8125C203.732 99.6198 203.719 100.414 203.719 101.195C203.719 101.951 203.693 102.589 203.641 103.109C203.484 105.271 203.211 107.471 202.82 109.711C202.456 111.924 202.143 114.281 201.883 116.781V116.898C201.883 117.003 201.883 117.107 201.883 117.211C201.909 117.289 201.922 117.367 201.922 117.445C201.922 117.523 201.883 117.641 201.805 117.797C201.753 117.927 201.674 117.992 201.57 117.992C201.57 118.279 201.583 118.461 201.609 118.539C201.661 118.591 201.688 118.708 201.688 118.891C201.688 118.969 201.674 119.073 201.648 119.203C201.648 119.333 201.622 119.503 201.57 119.711C201.44 120.284 201.336 120.961 201.258 121.742C201.18 122.497 201.102 123.305 201.023 124.164C200.971 125.023 200.919 125.896 200.867 126.781C200.841 127.667 200.789 128.526 200.711 129.359C200.763 129.359 200.815 129.372 200.867 129.398C200.919 129.398 200.971 129.398 201.023 129.398C201.518 129.398 202 129.333 202.469 129.203C202.964 129.047 203.432 128.969 203.875 128.969C204.344 128.969 204.747 129.099 205.086 129.359C205.008 129.724 204.839 129.984 204.578 130.141C204.318 130.297 204.005 130.414 203.641 130.492C203.276 130.57 202.885 130.622 202.469 130.648C202.052 130.674 201.661 130.714 201.297 130.766C201.245 130.792 201.167 130.857 201.062 130.961C200.984 131.039 200.867 131.078 200.711 131.078C200.32 131.104 199.891 131.195 199.422 131.352C198.979 131.508 198.523 131.677 198.055 131.859C197.586 132.042 197.117 132.211 196.648 132.367C196.206 132.523 195.776 132.602 195.359 132.602C195.073 132.602 194.839 132.562 194.656 132.484C194.474 132.432 194.279 132.406 194.07 132.406C193.784 132.406 193.589 132.471 193.484 132.602C193.38 132.732 193.263 132.81 193.133 132.836C192.586 132.966 191.948 133.148 191.219 133.383C190.49 133.643 189.852 133.773 189.305 133.773C189.018 133.773 188.758 133.721 188.523 133.617C188.315 133.565 188.146 133.461 188.016 133.305C187.885 133.174 187.846 133.005 187.898 132.797C187.846 132.641 187.82 132.523 187.82 132.445C187.82 132.107 187.964 131.846 188.25 131.664C188.562 131.482 188.94 131.339 189.383 131.234C189.852 131.13 190.359 131.052 190.906 131C191.479 130.922 192.026 130.844 192.547 130.766C192.599 130.766 192.664 130.779 192.742 130.805C192.82 130.805 192.924 130.805 193.055 130.805C193.732 130.805 194.188 130.44 194.422 129.711C194.682 128.982 194.93 127.784 195.164 126.117C195.164 126.091 195.177 126.039 195.203 125.961C195.229 125.857 195.32 125.714 195.477 125.531C195.477 125.245 195.424 125.01 195.32 124.828C195.216 124.62 195.164 124.411 195.164 124.203C195.164 124.125 195.203 124.047 195.281 123.969C195.359 123.865 195.424 123.708 195.477 123.5C195.529 122.927 195.607 122.289 195.711 121.586C195.841 120.857 195.971 120.089 196.102 119.281C196.232 118.474 196.349 117.641 196.453 116.781C196.557 115.896 196.622 115.023 196.648 114.164C196.648 113.591 196.661 113.057 196.688 112.562C196.714 112.068 196.792 111.534 196.922 110.961C196.948 110.857 196.961 110.779 196.961 110.727C196.987 110.648 197 110.57 197 110.492C197 110.336 196.987 110.154 196.961 109.945C196.935 109.737 196.922 109.385 196.922 108.891C196.922 108.109 197 107.224 197.156 106.234C197.312 105.245 197.43 104.203 197.508 103.109C197.56 102.328 197.612 101.612 197.664 100.961C197.716 100.31 197.768 99.6719 197.82 99.0469C197.872 98.3958 197.938 97.7448 198.016 97.0938C198.12 96.4167 198.237 95.6875 198.367 94.9062C198.419 94.6979 198.497 94.3333 198.602 93.8125C198.706 93.2917 198.758 92.849 198.758 92.4844C198.758 92.1198 198.641 91.8984 198.406 91.8203C198.198 91.7161 197.951 91.6641 197.664 91.6641C196.648 91.6641 195.802 91.8724 195.125 92.2891C194.448 92.7057 193.862 93.1615 193.367 93.6562C192.872 94.125 192.43 94.5677 192.039 94.9844C191.648 95.401 191.219 95.6094 190.75 95.6094C190.62 95.6094 190.49 95.5833 190.359 95.5312C190.255 95.4792 190.203 95.3359 190.203 95.1016C190.203 94.5807 190.359 94.138 190.672 93.7734C190.984 93.3828 191.31 92.9922 191.648 92.6016C191.779 92.4714 191.922 92.4193 192.078 92.4453C192.26 92.4453 192.417 92.3932 192.547 92.2891C192.755 92.0807 192.951 91.7943 193.133 91.4297C193.315 91.0391 193.51 90.7396 193.719 90.5312C193.849 90.401 193.992 90.349 194.148 90.375C194.305 90.401 194.461 90.362 194.617 90.2578L195.164 89.6328C195.294 89.4766 195.411 89.3203 195.516 89.1641C195.646 89.0078 195.724 88.8776 195.75 88.7734C195.75 88.7474 195.841 88.6172 196.023 88.3828C196.206 88.1484 196.414 87.901 196.648 87.6406C196.883 87.3542 197.104 87.1068 197.312 86.8984C197.547 86.6641 197.703 86.5208 197.781 86.4688C198.016 86.3385 198.289 86.2604 198.602 86.2344C198.94 86.1823 199.266 86.1562 199.578 86.1562C199.917 86.1302 200.229 86.1042 200.516 86.0781C200.828 86.0521 201.089 85.987 201.297 85.8828C201.505 85.7526 201.622 85.6224 201.648 85.4922C201.701 85.3359 201.87 85.0755 202.156 84.7109C202.286 84.5286 202.495 84.3724 202.781 84.2422C203.068 84.112 203.25 83.9818 203.328 83.8516C203.328 83.8255 203.354 83.6302 203.406 83.2656C203.458 82.875 203.549 82.4583 203.68 82.0156C203.836 81.5729 204.031 81.1693 204.266 80.8047C204.526 80.4401 204.865 80.2578 205.281 80.2578C205.49 80.2578 205.659 80.375 205.789 80.6094C205.919 80.8177 206.076 80.9219 206.258 80.9219V81.0781C206.258 81.3646 206.193 81.7292 206.062 82.1719C205.932 82.5885 205.789 83.0182 205.633 83.4609C205.477 83.8776 205.333 84.2682 205.203 84.6328C205.073 84.9714 205.008 85.1927 205.008 85.2969C205.008 85.6875 205.164 86 205.477 86.2344C205.789 86.4427 206.206 86.638 206.727 86.8203C207.273 87.0026 207.898 87.1719 208.602 87.3281C209.331 87.4844 210.099 87.6797 210.906 87.9141C211.453 88.0703 211.909 88.2396 212.273 88.4219C212.664 88.6042 213.029 88.7995 213.367 89.0078C213.706 89.1901 214.044 89.3854 214.383 89.5938C214.721 89.8021 215.112 90.0234 215.555 90.2578C215.685 90.3099 215.88 90.349 216.141 90.375C216.427 90.375 216.635 90.4271 216.766 90.5312C217.052 90.7396 217.286 91.013 217.469 91.3516C217.677 91.6901 217.924 92.0026 218.211 92.2891C218.523 92.6016 218.901 92.9661 219.344 93.3828C219.812 93.7995 220.268 94.2161 220.711 94.6328C221.154 95.0234 221.531 95.401 221.844 95.7656C222.156 96.1302 222.312 96.4036 222.312 96.5859C222.312 96.6901 222.299 96.8203 222.273 96.9766C222.247 97.1068 222.234 97.224 222.234 97.3281C222.234 97.4583 222.273 97.5625 222.352 97.6406C222.43 97.7188 222.469 97.8229 222.469 97.9531C222.469 98.1615 222.391 98.3958 222.234 98.6562C222.104 98.8906 221.922 99.2031 221.688 99.5938C221.583 99.8021 221.544 99.9974 221.57 100.18C221.596 100.362 221.544 100.557 221.414 100.766C221.336 100.896 221.206 100.961 221.023 100.961C220.867 100.935 220.789 101 220.789 101.156C220.789 101.208 220.789 101.273 220.789 101.352C220.815 101.43 220.828 101.495 220.828 101.547C220.828 101.755 220.685 101.964 220.398 102.172C220.112 102.38 219.773 102.602 219.383 102.836C219.018 103.044 218.654 103.266 218.289 103.5C217.951 103.734 217.729 103.982 217.625 104.242V104.281C217.625 104.333 217.625 104.411 217.625 104.516C217.651 104.594 217.664 104.659 217.664 104.711C217.664 104.789 217.612 104.867 217.508 104.945C217.404 104.997 217.286 105.049 217.156 105.102C217.026 105.154 216.896 105.206 216.766 105.258C216.635 105.31 216.531 105.362 216.453 105.414C216.323 105.492 216.167 105.648 215.984 105.883C215.828 106.091 215.646 106.326 215.438 106.586C215.255 106.82 215.073 107.055 214.891 107.289C214.708 107.497 214.552 107.654 214.422 107.758C214.266 107.888 214.005 108.031 213.641 108.188C213.276 108.344 212.911 108.513 212.547 108.695C212.182 108.878 211.857 109.073 211.57 109.281C211.31 109.464 211.18 109.646 211.18 109.828C211.18 109.958 211.297 110.219 211.531 110.609C211.792 110.974 212.065 111.352 212.352 111.742C212.69 112.211 213.081 112.719 213.523 113.266C213.523 113.474 213.745 113.852 214.188 114.398C214.63 114.945 215.138 115.557 215.711 116.234C216.31 116.885 216.896 117.536 217.469 118.188C218.068 118.812 218.51 119.32 218.797 119.711C218.927 119.867 219.07 120.01 219.227 120.141C219.383 120.245 219.526 120.401 219.656 120.609C219.786 120.74 219.839 120.883 219.812 121.039C219.812 121.195 219.852 121.339 219.93 121.469C220.008 121.521 220.112 121.573 220.242 121.625C220.398 121.651 220.503 121.69 220.555 121.742C221.284 122.758 221.87 123.591 222.312 124.242C222.755 124.867 223.12 125.375 223.406 125.766C223.719 126.13 223.992 126.378 224.227 126.508C224.487 126.638 224.786 126.703 225.125 126.703C225.542 126.703 225.997 126.573 226.492 126.312C227.013 126.052 227.482 125.753 227.898 125.414C228.341 125.049 228.706 124.698 228.992 124.359C229.305 124.021 229.461 123.773 229.461 123.617V123.5C229.461 123.448 229.474 123.37 229.5 123.266C229.552 123.135 229.682 122.927 229.891 122.641C230.073 122.354 230.242 122.081 230.398 121.82C230.581 121.56 230.815 121.43 231.102 121.43C231.232 121.43 231.401 121.521 231.609 121.703C231.818 121.885 231.922 122.198 231.922 122.641Z" fill="black"/>
</svg>
