<svg width="102" height="71" viewBox="0 0 102 71" fill="none" xmlns="http://www.w3.org/2000/svg">
<path d="M1 23.6157V5.24072H3.525L6.025 14.8157L6.25 15.6657H6.4V5.24072H8.875V23.6157H6.6L3.85 14.0407L3.625 13.1907H3.475V23.6157H1ZM10.3008 23.6157L13.0758 5.24072H16.3758L19.1508 23.6157H16.5258L16.0258 19.8657H13.4258L12.9258 23.6157H10.3008ZM13.8008 17.0157H15.6508L14.8758 10.8407L14.8008 9.86572H14.6508L14.5758 10.8407L13.8008 17.0157ZM21.135 23.6157V8.01572H18.585V5.24072H26.385V8.01572H23.835V23.6157H21.135ZM31.2357 23.8157C30.4774 23.8157 29.8274 23.6407 29.2857 23.2907C28.7524 22.9407 28.3441 22.4657 28.0607 21.8657C27.7774 21.2657 27.6357 20.5907 27.6357 19.8407V5.24072H30.3357V19.8407C30.3357 20.1991 30.4066 20.5157 30.5482 20.7907C30.6899 21.0574 30.9191 21.1907 31.2357 21.1907C31.5691 21.1907 31.8024 21.0574 31.9357 20.7907C32.0691 20.5157 32.1357 20.1991 32.1357 19.8407V5.24072H34.8357V19.8407C34.8357 20.5907 34.6899 21.2657 34.3982 21.8657C34.1149 22.4657 33.7024 22.9407 33.1607 23.2907C32.6274 23.6407 31.9857 23.8157 31.2357 23.8157ZM36.8398 23.6157V5.24072H39.5398C41.1565 5.24072 42.3482 5.69072 43.1148 6.59072C43.8815 7.48239 44.2648 8.79906 44.2648 10.5407C44.2648 11.5741 44.0815 12.4699 43.7148 13.2282C43.3565 13.9782 42.919 14.5282 42.4023 14.8782L44.2398 23.6157H41.5398L40.0148 15.8657H39.5398V23.6157H36.8398ZM39.5398 13.3657C40.0398 13.3657 40.4357 13.2574 40.7273 13.0407C41.019 12.8157 41.2273 12.4991 41.3523 12.0907C41.4773 11.6824 41.5398 11.1991 41.5398 10.6407C41.5398 9.76572 41.394 9.09489 41.1023 8.62822C40.819 8.15322 40.2982 7.91572 39.5398 7.91572V13.3657ZM45.7754 23.6157V5.24072H51.9504V8.01572H48.4754V12.9657H50.9754V15.6657H48.4754V20.8407H51.9504V23.6157H45.7754Z" fill="#44AC3B"/>
<path d="M44.9009 28.4136C44.9334 28.4543 44.9497 28.5112 44.9497 28.5845C44.9497 28.7228 44.9212 28.8612 44.8643 28.9995C44.8154 29.1297 44.7585 29.2477 44.6934 29.3535C44.6283 29.4593 44.5672 29.5448 44.5103 29.6099C44.4614 29.675 44.437 29.7116 44.437 29.7197C44.437 29.7441 44.437 29.7726 44.437 29.8052C44.4451 29.8377 44.4492 29.8662 44.4492 29.8906C44.4492 29.9313 44.4329 29.9761 44.4004 30.0249C44.376 30.0737 44.3475 30.1185 44.3149 30.1592C44.2824 30.1999 44.2498 30.2365 44.2173 30.269C44.1847 30.3016 44.1685 30.3219 44.1685 30.3301C44.1359 30.4115 44.1196 30.501 44.1196 30.5986C44.1196 30.6882 44.1156 30.7777 44.1074 30.8672C44.0993 30.9486 44.0749 31.0259 44.0342 31.0991C43.9935 31.1642 43.9162 31.2131 43.8022 31.2456C43.7697 31.1886 43.7534 31.1235 43.7534 31.0503C43.7534 30.9852 43.7616 30.916 43.7778 30.8428C43.7941 30.7614 43.8022 30.68 43.8022 30.5986V30.5132C43.7453 30.4074 43.7005 30.2935 43.668 30.1714C43.6436 30.0493 43.6069 29.9395 43.5581 29.8418C43.5093 29.7441 43.4401 29.6628 43.3506 29.5977C43.2611 29.5326 43.1309 29.5 42.96 29.5C42.7646 29.5 42.5612 29.5203 42.3496 29.561C42.138 29.5936 41.9549 29.6099 41.8003 29.6099C41.5887 29.6099 41.373 29.5814 41.1533 29.5244C40.9336 29.4674 40.7342 29.439 40.5552 29.439C40.3436 29.439 40.189 29.5326 40.0913 29.7197C39.9937 29.9069 39.9245 30.1714 39.8838 30.5132C39.8675 30.6027 39.835 30.7004 39.7861 30.8062C39.7454 30.9038 39.717 31.0177 39.7007 31.1479C39.66 31.3921 39.6478 31.6444 39.6641 31.9048C39.6803 32.1652 39.6641 32.4012 39.6152 32.6128C39.5827 32.7593 39.5461 32.8773 39.5054 32.9668C39.4728 33.0563 39.4403 33.1418 39.4077 33.2231C39.3752 33.3045 39.3467 33.4022 39.3223 33.5161C39.306 33.63 39.2979 33.7847 39.2979 33.98C39.2979 34.0695 39.3019 34.1468 39.3101 34.2119C39.3182 34.277 39.3304 34.3218 39.3467 34.3462C39.3792 34.3869 39.4484 34.4235 39.5542 34.4561C39.66 34.4886 39.7902 34.5171 39.9448 34.5415C40.0994 34.5578 40.2663 34.5741 40.4453 34.5903C40.6325 34.5985 40.8156 34.6025 40.9946 34.6025C41.1899 34.6025 41.373 34.5985 41.5439 34.5903C41.723 34.5741 41.8695 34.5537 41.9834 34.5293C42.0811 34.5049 42.1665 34.4642 42.2397 34.4072C42.313 34.3421 42.3781 34.2933 42.4351 34.2607C42.4839 34.2282 42.5327 34.2119 42.5815 34.2119C42.6304 34.2119 42.6751 34.1956 42.7158 34.1631C42.7565 34.1224 42.8013 34.0695 42.8501 34.0044C42.8989 33.9312 42.9559 33.862 43.021 33.7969C43.0861 33.7236 43.1593 33.6626 43.2407 33.6138C43.3302 33.5568 43.432 33.5283 43.5459 33.5283H43.6191C43.5947 33.7643 43.5378 33.9718 43.4482 34.1509C43.3587 34.3218 43.2448 34.4805 43.1064 34.627C42.9762 34.7653 42.8298 34.8955 42.667 35.0176C42.5042 35.1315 42.3374 35.2414 42.1665 35.3472C42.077 35.4041 41.9753 35.4774 41.8613 35.5669C41.7555 35.6564 41.6457 35.7337 41.5317 35.7988H41.4829C41.4015 35.7988 41.312 35.7866 41.2144 35.7622C41.1167 35.7297 41.0109 35.7134 40.897 35.7134H40.6895C40.5999 35.7134 40.5308 35.7093 40.4819 35.7012C40.4412 35.693 40.3965 35.689 40.3477 35.689C40.2907 35.689 40.2215 35.693 40.1401 35.7012C40.0669 35.7093 39.953 35.7134 39.7983 35.7134C39.717 35.7134 39.6437 35.7134 39.5786 35.7134C39.5135 35.7052 39.4606 35.7012 39.4199 35.7012C39.3223 35.7012 39.2409 35.7866 39.1758 35.9575C39.1107 36.1284 39.0537 36.3481 39.0049 36.6167C38.9561 36.8771 38.9113 37.1701 38.8706 37.4956C38.8381 37.813 38.8096 38.1222 38.7852 38.4233C38.7689 38.7163 38.7526 38.9849 38.7363 39.229C38.7201 39.465 38.7078 39.6318 38.6997 39.7295C38.6997 39.7458 38.6834 39.8271 38.6509 39.9736C38.6183 40.1201 38.5817 40.291 38.541 40.4863C38.5085 40.6735 38.4759 40.8607 38.4434 41.0479C38.4189 41.2269 38.4067 41.3652 38.4067 41.4629C38.4067 41.5199 38.4149 41.5524 38.4312 41.5605C38.4556 41.5605 38.5044 41.5605 38.5776 41.5605C38.6427 41.5605 38.716 41.5605 38.7974 41.5605C38.8869 41.5524 38.9764 41.5483 39.0659 41.5483C39.245 41.5483 39.4077 41.5646 39.5542 41.5972C39.7088 41.6297 39.7861 41.7111 39.7861 41.8413C39.7861 41.9146 39.7536 41.9715 39.6885 42.0122C39.6234 42.061 39.5379 42.0977 39.4321 42.1221C39.3263 42.1465 39.2043 42.1628 39.0659 42.1709C38.9357 42.179 38.8014 42.1831 38.6631 42.1831H38.0405C37.8045 42.1831 37.5522 42.2116 37.2837 42.2686C37.0233 42.3337 36.7588 42.3662 36.4902 42.3662C36.4089 42.3662 36.3315 42.3621 36.2583 42.354C36.1932 42.354 36.1281 42.354 36.063 42.354C35.8921 42.354 35.7171 42.3784 35.5381 42.4272C35.359 42.4842 35.1882 42.5127 35.0254 42.5127C34.9277 42.5127 34.8464 42.4964 34.7812 42.4639C34.7812 42.3255 34.8504 42.2075 34.9888 42.1099C35.1353 42.0203 35.3346 41.9756 35.5869 41.9756H35.7944C36.063 41.9756 36.2583 41.8861 36.3804 41.707C36.5024 41.5199 36.5879 41.2961 36.6367 41.0356C36.6855 40.7671 36.71 40.4823 36.71 40.1812C36.7181 39.8719 36.7425 39.5952 36.7832 39.3511C36.7995 39.2616 36.8361 39.172 36.8931 39.0825C36.95 38.993 36.9785 38.8913 36.9785 38.7773C36.9785 38.7204 36.9744 38.6675 36.9663 38.6187C36.9582 38.5617 36.9541 38.5088 36.9541 38.46C36.9541 38.3949 36.9867 38.342 37.0518 38.3013C37.1169 38.2524 37.1494 38.2077 37.1494 38.167C37.1901 38.0531 37.2064 37.9554 37.1982 37.874C37.1901 37.7845 37.2064 37.6706 37.2471 37.5322C37.2715 37.459 37.2918 37.3613 37.3081 37.2393C37.3325 37.1172 37.3529 36.987 37.3691 36.8486C37.3936 36.7103 37.4098 36.5679 37.418 36.4214C37.4342 36.2749 37.4424 36.1406 37.4424 36.0186C37.4424 35.9779 37.4342 35.9453 37.418 35.9209C37.4098 35.8965 37.3732 35.8843 37.3081 35.8843C37.1616 35.8843 37.0436 35.9087 36.9541 35.9575C36.8646 36.0063 36.7791 36.0633 36.6978 36.1284C36.6245 36.1854 36.5391 36.2383 36.4414 36.2871C36.3438 36.3359 36.2176 36.3604 36.063 36.3604C36.0304 36.3604 36.002 36.3563 35.9775 36.3481C35.9613 36.3319 35.9531 36.2993 35.9531 36.2505C35.9531 36.1284 35.9938 36.0145 36.0752 35.9087C36.1647 35.7948 36.2664 35.6971 36.3804 35.6157C36.4943 35.5262 36.6042 35.453 36.71 35.396C36.8239 35.3309 36.9093 35.2821 36.9663 35.2495C36.9907 35.2414 37.0314 35.221 37.0884 35.1885C37.1535 35.1478 37.2186 35.1071 37.2837 35.0664C37.3569 35.0257 37.422 34.981 37.479 34.9321C37.536 34.8833 37.5767 34.8385 37.6011 34.7979C37.6174 34.7572 37.6296 34.6961 37.6377 34.6147C37.6458 34.5252 37.6499 34.4316 37.6499 34.334C37.658 34.2282 37.6621 34.1224 37.6621 34.0166C37.6702 33.9027 37.6825 33.8009 37.6987 33.7114C37.7394 33.451 37.7801 33.2191 37.8208 33.0156C37.8615 32.804 37.8818 32.6291 37.8818 32.4907C37.8818 32.3931 37.8778 32.2913 37.8696 32.1855C37.8696 32.0798 37.8696 31.9699 37.8696 31.856C37.8696 31.5467 37.894 31.2375 37.9429 30.9282C37.9917 30.6108 38.0161 30.3341 38.0161 30.0981C38.0161 29.9598 37.9998 29.8581 37.9673 29.793C37.9347 29.7197 37.894 29.6668 37.8452 29.6343C37.8045 29.6017 37.7679 29.5814 37.7354 29.5732C37.7028 29.557 37.6865 29.5366 37.6865 29.5122H37.6743C37.6011 29.5122 37.5197 29.5448 37.4302 29.6099C37.3488 29.6668 37.2633 29.6953 37.1738 29.6953C37.0518 29.6953 36.9256 29.6831 36.7954 29.6587C36.6652 29.6261 36.6001 29.5529 36.6001 29.439C36.6001 29.2355 36.6733 29.1216 36.8198 29.0972C36.9744 29.0728 37.1698 29.0605 37.4058 29.0605C37.4871 29.0605 37.5726 29.0646 37.6621 29.0728C37.7516 29.0728 37.8452 29.0728 37.9429 29.0728C38.1707 29.0728 38.4474 29.0483 38.7729 28.9995C39.1066 28.9507 39.4484 28.8978 39.7983 28.8408C40.1564 28.7757 40.5063 28.7188 40.8481 28.6699C41.1981 28.6211 41.5073 28.5967 41.7759 28.5967C41.8898 28.5967 41.9915 28.6007 42.0811 28.6089C42.1787 28.6089 42.2682 28.6089 42.3496 28.6089C42.4554 28.6089 42.5978 28.5967 42.7769 28.5723C42.9559 28.5397 43.1471 28.5072 43.3506 28.4746C43.5622 28.4339 43.7819 28.4014 44.0098 28.377C44.2376 28.3444 44.4574 28.3281 44.6689 28.3281C44.7747 28.3281 44.8521 28.3566 44.9009 28.4136ZM56.9614 34.7368C56.937 35.0542 56.8882 35.3594 56.8149 35.6523C56.7417 35.9372 56.644 36.222 56.522 36.5068C56.408 36.7917 56.2656 37.0887 56.0947 37.3979C55.9238 37.6991 55.7285 38.0246 55.5088 38.3745C55.4925 38.4152 55.4803 38.464 55.4722 38.521C55.464 38.5698 55.4478 38.6146 55.4233 38.6553C55.3664 38.7204 55.2891 38.7814 55.1914 38.8384C55.0938 38.8953 55.0164 38.9564 54.9595 39.0215C54.9269 39.0622 54.9106 39.1069 54.9106 39.1558C54.9106 39.2046 54.8984 39.2493 54.874 39.29C54.8333 39.347 54.7682 39.408 54.6787 39.4731C54.5892 39.5301 54.4997 39.5911 54.4102 39.6562C54.3776 39.6888 54.3573 39.7295 54.3491 39.7783C54.3491 39.8271 54.3288 39.8516 54.2881 39.8516C54.2718 39.8516 54.2515 39.8516 54.2271 39.8516C54.2026 39.8434 54.1823 39.8394 54.166 39.8394C54.1172 39.8394 54.0765 39.88 54.0439 39.9614C54.0195 40.0347 53.991 40.0876 53.9585 40.1201C53.9178 40.1445 53.869 40.1567 53.812 40.1567C53.7632 40.1567 53.7184 40.173 53.6777 40.2056C53.5475 40.3032 53.4336 40.4131 53.3359 40.5352C53.2383 40.6491 53.1121 40.7508 52.9575 40.8403C52.9168 40.8566 52.868 40.8688 52.811 40.877C52.7622 40.8851 52.7215 40.9054 52.689 40.938C52.6483 40.9543 52.6239 40.9909 52.6157 41.0479C52.6157 41.0967 52.5954 41.1211 52.5547 41.1211C52.5384 41.1211 52.5181 41.1211 52.4937 41.1211C52.4692 41.113 52.4489 41.1089 52.4326 41.1089C52.3919 41.1089 52.3634 41.1414 52.3472 41.2065C52.339 41.2716 52.3146 41.3042 52.2739 41.3042C52.2576 41.3042 52.2373 41.3042 52.2129 41.3042C52.1966 41.2961 52.1803 41.292 52.1641 41.292C52.1152 41.292 52.0745 41.3327 52.042 41.4141C52.0176 41.4954 51.9891 41.5483 51.9565 41.5728C51.8752 41.6297 51.7734 41.6582 51.6514 41.6582C51.5374 41.6501 51.4276 41.6826 51.3218 41.7559C51.2811 41.7721 51.2485 41.8006 51.2241 41.8413C51.2078 41.8739 51.1753 41.9023 51.1265 41.9268C50.9718 42.0163 50.7928 42.0895 50.5894 42.1465C50.3859 42.2116 50.154 42.2441 49.8936 42.2441C49.7389 42.2441 49.5762 42.2319 49.4053 42.2075C49.332 42.1343 49.2466 42.0814 49.1489 42.0488C49.0513 42.0244 48.9455 42 48.8315 41.9756C48.7257 41.943 48.6118 41.9064 48.4897 41.8657C48.3677 41.825 48.2456 41.7559 48.1235 41.6582C48.0096 41.5687 47.9038 41.4751 47.8062 41.3774C47.7166 41.2716 47.6108 41.1821 47.4888 41.1089C47.4237 41.0763 47.3545 41.0519 47.2812 41.0356C47.2161 41.0112 47.1632 40.9787 47.1226 40.938C47.0819 40.8973 47.0656 40.8525 47.0737 40.8037C47.0819 40.7549 47.0656 40.7061 47.0249 40.6572C47.0086 40.6328 46.9761 40.6165 46.9272 40.6084C46.8866 40.6003 46.8581 40.584 46.8418 40.5596C46.8011 40.5026 46.7726 40.4456 46.7563 40.3887C46.7401 40.3236 46.7116 40.2625 46.6709 40.2056C46.5732 40.0835 46.4674 39.9858 46.3535 39.9126C46.2477 39.8312 46.1704 39.7458 46.1216 39.6562C46.0809 39.583 46.0361 39.4813 45.9873 39.3511C45.9466 39.2127 45.9019 39.0662 45.853 38.9116C45.8123 38.7489 45.7676 38.5902 45.7188 38.4355C45.6699 38.2728 45.6211 38.1344 45.5723 38.0205C45.4339 37.7194 45.3647 37.3044 45.3647 36.7754C45.3647 36.5638 45.3729 36.3359 45.3892 36.0918C45.4054 35.8477 45.4299 35.6035 45.4624 35.3594C45.5031 35.1152 45.5438 34.8792 45.5845 34.6514C45.6333 34.4154 45.6903 34.1997 45.7554 34.0044C45.8042 33.8416 45.8327 33.6789 45.8408 33.5161C45.849 33.3452 45.8815 33.2028 45.9385 33.0889C45.9466 33.0645 45.971 33.04 46.0117 33.0156C46.0605 32.9831 46.0972 32.9465 46.1216 32.9058C46.146 32.8488 46.1582 32.804 46.1582 32.7715C46.1582 32.7308 46.1745 32.686 46.207 32.6372C46.2233 32.6047 46.2518 32.5721 46.2925 32.5396C46.3413 32.507 46.3739 32.4785 46.3901 32.4541C46.4146 32.4134 46.4268 32.3687 46.4268 32.3198C46.4349 32.271 46.4552 32.2262 46.4878 32.1855C46.5285 32.1204 46.5854 32.0594 46.6587 32.0024C46.7401 31.9455 46.8011 31.8844 46.8418 31.8193C46.8743 31.7786 46.8906 31.7339 46.8906 31.6851C46.8906 31.6281 46.9069 31.5793 46.9395 31.5386C46.9557 31.5142 46.9842 31.502 47.0249 31.502C47.0737 31.4938 47.1063 31.4775 47.1226 31.4531C47.1551 31.4124 47.1714 31.3677 47.1714 31.3188C47.1714 31.27 47.1877 31.2253 47.2202 31.1846C47.269 31.1113 47.3464 31.0299 47.4521 30.9404C47.5661 30.8428 47.6678 30.741 47.7573 30.6353C47.9201 30.4562 48.0828 30.2853 48.2456 30.1226C48.4165 29.9598 48.5915 29.8052 48.7705 29.6587C48.9577 29.5041 49.153 29.3535 49.3564 29.207C49.568 29.0524 49.7959 28.8896 50.04 28.7188C50.2028 28.5885 50.3696 28.4705 50.5405 28.3647C50.6789 28.2752 50.8335 28.1857 51.0044 28.0962C51.1753 28.0067 51.3381 27.9416 51.4927 27.9009C51.5008 27.9009 51.509 27.8887 51.5171 27.8643C51.5252 27.8317 51.5496 27.8154 51.5903 27.8154C51.6636 27.7992 51.7694 27.7869 51.9077 27.7788C52.0461 27.7625 52.1885 27.7544 52.335 27.7544C52.5628 27.7544 52.7703 27.7747 52.9575 27.8154C53.1121 27.8561 53.2708 27.8887 53.4336 27.9131C53.6045 27.9375 53.7754 27.9741 53.9463 28.0229C54.1253 28.0636 54.3044 28.1247 54.4834 28.2061C54.6706 28.2793 54.8577 28.3892 55.0449 28.5356C55.0856 28.5682 55.1182 28.6211 55.1426 28.6943C55.1751 28.7594 55.2362 28.7961 55.3257 28.8042C55.4152 28.8123 55.4884 28.853 55.5454 28.9263C55.6105 28.9995 55.6634 29.0931 55.7041 29.207C55.7529 29.3128 55.7936 29.4308 55.8262 29.561C55.8669 29.6831 55.9116 29.797 55.9604 29.9028C55.9767 29.9272 56.05 30.0656 56.1802 30.3179C56.3185 30.5701 56.4569 30.8875 56.5952 31.27C56.6196 31.3351 56.6359 31.4124 56.644 31.502C56.6522 31.5915 56.6685 31.6647 56.6929 31.7217C56.7091 31.7705 56.7376 31.8153 56.7783 31.856C56.8271 31.8885 56.8597 31.9373 56.876 32.0024C56.9167 32.2059 56.9492 32.4582 56.9736 32.7593C56.998 33.0604 57.0103 33.3778 57.0103 33.7114C57.0103 33.8823 57.0062 34.0573 56.998 34.2363C56.9899 34.4072 56.9777 34.5741 56.9614 34.7368ZM55.5088 33.3696C55.4844 33.1662 55.4233 32.9627 55.3257 32.7593C55.228 32.5477 55.167 32.3849 55.1426 32.271C55.0938 32.0757 55.0246 31.9048 54.9351 31.7583C54.8455 31.6037 54.752 31.4653 54.6543 31.3433C54.5648 31.2212 54.4834 31.1154 54.4102 31.0259C54.3451 30.9282 54.3125 30.8387 54.3125 30.7573C54.3125 30.7329 54.3125 30.7044 54.3125 30.6719C54.3206 30.6393 54.3247 30.6108 54.3247 30.5864C54.3247 30.5539 54.2759 30.4847 54.1782 30.3789C54.0806 30.2731 53.9748 30.1755 53.8608 30.0859C53.8039 30.0452 53.7306 30.0208 53.6411 30.0127C53.5516 29.9964 53.4743 29.9598 53.4092 29.9028C53.3441 29.854 53.2912 29.7889 53.2505 29.7075C53.2098 29.6261 53.1691 29.5692 53.1284 29.5366C52.9738 29.4146 52.7581 29.321 52.4814 29.2559C52.2048 29.1908 51.9362 29.1582 51.6758 29.1582C51.5863 29.1582 51.4886 29.1663 51.3828 29.1826C51.277 29.1908 51.2241 29.2192 51.2241 29.2681C50.9312 29.3088 50.6829 29.3535 50.4795 29.4023C50.2842 29.4512 50.1133 29.5081 49.9668 29.5732C49.8285 29.6302 49.7064 29.6953 49.6006 29.7686C49.5029 29.8418 49.4053 29.9191 49.3076 30.0005C49.2669 30.0249 49.2344 30.0534 49.21 30.0859C49.1937 30.1185 49.1652 30.147 49.1245 30.1714C49.035 30.2365 48.9495 30.2853 48.8682 30.3179C48.7949 30.3504 48.7298 30.3952 48.6729 30.4521C48.6322 30.4928 48.6118 30.5376 48.6118 30.5864C48.62 30.6353 48.6118 30.68 48.5874 30.7207C48.5549 30.7614 48.506 30.7939 48.4409 30.8184C48.3758 30.8346 48.3311 30.8631 48.3066 30.9038C48.2822 30.9445 48.2619 30.9933 48.2456 31.0503C48.2375 31.1073 48.2253 31.152 48.209 31.1846C48.0869 31.4531 47.9648 31.6932 47.8428 31.9048C47.7288 32.1082 47.6393 32.2913 47.5742 32.4541C47.5254 32.5762 47.4847 32.7389 47.4521 32.9424C47.4196 33.1458 47.3911 33.3615 47.3667 33.5894C47.3504 33.8091 47.3341 34.0288 47.3179 34.2485C47.3097 34.4601 47.3016 34.6392 47.2935 34.7856C47.2935 34.8345 47.2935 34.8711 47.2935 34.8955C47.3016 34.9118 47.3057 34.9403 47.3057 34.981V35.0908C47.3138 35.1803 47.3219 35.2576 47.3301 35.3228C47.3382 35.3797 47.3464 35.4326 47.3545 35.4814C47.3626 35.5221 47.3708 35.5628 47.3789 35.6035C47.387 35.6442 47.3911 35.693 47.3911 35.75C47.3911 35.7663 47.387 35.7988 47.3789 35.8477C47.3708 35.8883 47.3464 35.9453 47.3057 36.0186C47.3138 36.1081 47.3423 36.1976 47.3911 36.2871C47.4399 36.3766 47.4725 36.4661 47.4888 36.5557C47.505 36.6452 47.5132 36.7266 47.5132 36.7998C47.5132 36.8649 47.5132 36.93 47.5132 36.9951V37.2148C47.5132 37.3369 47.5254 37.4264 47.5498 37.4834C47.5824 37.5404 47.619 37.6258 47.6597 37.7397C47.6922 37.8293 47.7126 37.9188 47.7207 38.0083C47.7288 38.0978 47.741 38.1629 47.7573 38.2036C47.7817 38.2606 47.8224 38.3013 47.8794 38.3257C47.9445 38.3501 47.9974 38.3989 48.0381 38.4722C48.0788 38.5373 48.1073 38.6146 48.1235 38.7041C48.1398 38.7936 48.1683 38.8669 48.209 38.9238C48.2253 38.9482 48.2537 38.9645 48.2944 38.9727C48.3433 38.9808 48.3758 38.9971 48.3921 39.0215C48.4246 39.0622 48.4409 39.1069 48.4409 39.1558C48.4491 39.2046 48.4653 39.2493 48.4897 39.29C48.506 39.3145 48.5345 39.3307 48.5752 39.3389C48.624 39.347 48.6566 39.3633 48.6729 39.3877C48.7054 39.4121 48.7176 39.4569 48.7095 39.522C48.7095 39.5789 48.7257 39.6237 48.7583 39.6562C48.8315 39.7295 48.9455 39.7946 49.1001 39.8516C49.2629 39.9004 49.3931 39.9574 49.4907 40.0225C49.5314 40.0469 49.5599 40.0916 49.5762 40.1567C49.6006 40.2218 49.6331 40.2666 49.6738 40.291C49.7145 40.3236 49.7593 40.3439 49.8081 40.3521C49.8651 40.3602 49.9139 40.3724 49.9546 40.3887C50.158 40.5189 50.3289 40.6084 50.4673 40.6572C50.6056 40.6979 50.7521 40.7183 50.9067 40.7183C51.0532 40.7183 51.2241 40.6938 51.4194 40.645C51.6147 40.5962 51.8019 40.5352 51.981 40.4619C52.1681 40.3887 52.3309 40.3154 52.4692 40.2422C52.6157 40.1608 52.7174 40.0876 52.7744 40.0225C52.7744 40.0143 52.7826 40.0103 52.7988 40.0103C52.8151 40.0103 52.8354 40.0143 52.8599 40.0225C52.8924 40.0306 52.9168 40.0347 52.9331 40.0347C52.9738 40.0347 53.0308 39.994 53.104 39.9126C53.1772 39.8312 53.2505 39.7376 53.3237 39.6318C53.397 39.526 53.4661 39.4243 53.5312 39.3267C53.6045 39.2209 53.6533 39.1476 53.6777 39.1069C53.751 39.0011 53.8324 38.8913 53.9219 38.7773C54.0195 38.6553 54.1131 38.5373 54.2026 38.4233C54.2922 38.3013 54.3735 38.1833 54.4468 38.0693C54.52 37.9554 54.5688 37.8455 54.5933 37.7397C54.634 37.5851 54.6746 37.4834 54.7153 37.4346C54.756 37.3776 54.8089 37.2962 54.874 37.1904C54.9229 37.1009 54.9635 37.0195 54.9961 36.9463C55.0286 36.873 55.0571 36.7998 55.0815 36.7266C55.106 36.6533 55.1304 36.576 55.1548 36.4946C55.1792 36.4051 55.2036 36.3034 55.228 36.1895C55.2524 36.0918 55.2646 35.9941 55.2646 35.8965C55.2646 35.7988 55.2646 35.7012 55.2646 35.6035C55.2728 35.5059 55.285 35.4163 55.3013 35.335C55.3257 35.2454 55.3664 35.1641 55.4233 35.0908C55.464 34.9281 55.4925 34.745 55.5088 34.5415C55.5251 34.3299 55.5332 34.1224 55.5332 33.9189C55.5332 33.8213 55.5332 33.7277 55.5332 33.6382C55.5332 33.5405 55.5251 33.451 55.5088 33.3696ZM71.4756 39.3877C71.4756 39.4609 71.443 39.5382 71.3779 39.6196C71.321 39.6929 71.2518 39.7702 71.1704 39.8516C71.0972 39.9248 71.0199 40.0021 70.9385 40.0835C70.8571 40.1567 70.792 40.2259 70.7432 40.291C70.7025 40.348 70.6699 40.4212 70.6455 40.5107C70.6292 40.6003 70.6007 40.6816 70.5601 40.7549C70.4624 40.9421 70.3322 41.1048 70.1694 41.2432C70.0067 41.3815 69.8317 41.5524 69.6445 41.7559C69.5713 41.8372 69.5021 41.9186 69.437 42C69.38 42.0814 69.319 42.1546 69.2539 42.2197C69.1969 42.293 69.1278 42.3499 69.0464 42.3906C68.9731 42.4313 68.8836 42.4517 68.7778 42.4517C68.6639 42.4517 68.5744 42.4354 68.5093 42.4028C68.4523 42.3703 68.3953 42.3296 68.3384 42.2808C68.2896 42.2401 68.2326 42.1953 68.1675 42.1465C68.1105 42.0977 68.0291 42.057 67.9233 42.0244C67.8013 41.9919 67.6385 41.8698 67.4351 41.6582C67.2397 41.4466 67.0363 41.174 66.8247 40.8403C66.8084 40.8159 66.7881 40.8078 66.7637 40.8159C66.7474 40.8241 66.7393 40.8037 66.7393 40.7549C66.7393 40.7061 66.7026 40.6532 66.6294 40.5962C66.5643 40.5311 66.491 40.4701 66.4097 40.4131C66.3364 40.348 66.2632 40.291 66.1899 40.2422C66.1248 40.1934 66.0923 40.1527 66.0923 40.1201C66.0923 40.0713 66.0679 40.0265 66.019 39.9858C65.9784 39.937 65.9255 39.8923 65.8604 39.8516C65.8034 39.8027 65.7424 39.758 65.6772 39.7173C65.6203 39.6685 65.5755 39.6196 65.543 39.5708C65.486 39.4569 65.4168 39.3511 65.3354 39.2534C65.2541 39.1558 65.1686 39.0622 65.0791 38.9727C64.9896 38.875 64.9001 38.7814 64.8105 38.6919C64.721 38.5942 64.6356 38.4884 64.5542 38.3745C64.5054 38.3094 64.4647 38.2402 64.4321 38.167C64.3996 38.0938 64.3752 38.0449 64.3589 38.0205C64.2531 37.8903 64.1107 37.756 63.9316 37.6177C63.7526 37.4712 63.5776 37.3247 63.4067 37.1782C63.2358 37.0236 63.0894 36.873 62.9673 36.7266C62.8452 36.5719 62.7842 36.4255 62.7842 36.2871C62.7842 36.2464 62.8005 36.1895 62.833 36.1162C62.8737 36.043 62.9469 36.0063 63.0527 36.0063C63.0771 36.0063 63.1016 36.0104 63.126 36.0186C63.1504 36.0186 63.1707 36.0186 63.187 36.0186C63.2033 36.0104 63.244 35.9901 63.3091 35.9575C63.3823 35.9168 63.4556 35.8721 63.5288 35.8232C63.6183 35.7744 63.716 35.7134 63.8218 35.6401C63.9764 35.5506 64.1799 35.4245 64.4321 35.2617C64.6925 35.0908 64.9611 34.8955 65.2378 34.6758C65.5145 34.4561 65.779 34.2201 66.0312 33.9678C66.2835 33.7155 66.487 33.4551 66.6416 33.1865C66.6986 33.097 66.7515 33.0278 66.8003 32.979C66.8573 32.9302 66.8857 32.8407 66.8857 32.7104C66.8857 32.6291 66.8573 32.5314 66.8003 32.4175C66.7515 32.3035 66.6823 32.1896 66.5928 32.0757C66.5114 31.9618 66.4178 31.8519 66.312 31.7461C66.2144 31.6322 66.1126 31.5345 66.0068 31.4531C65.9417 31.3962 65.8604 31.3514 65.7627 31.3188C65.665 31.2782 65.5918 31.2334 65.543 31.1846C65.4697 31.0869 65.425 30.973 65.4087 30.8428C65.4006 30.7044 65.3558 30.6068 65.2744 30.5498C65.2256 30.5091 65.1279 30.4928 64.9814 30.501C64.835 30.501 64.721 30.4847 64.6396 30.4521C64.6152 30.4359 64.5868 30.4074 64.5542 30.3667C64.5298 30.3179 64.4972 30.2853 64.4565 30.269C64.4077 30.2365 64.3589 30.2161 64.3101 30.208C64.2694 30.1999 64.2246 30.1877 64.1758 30.1714C64.1595 30.1714 64.1351 30.151 64.1025 30.1104C64.07 30.0697 64.0171 30.029 63.9438 29.9883C63.8706 29.9476 63.777 29.911 63.6631 29.8784C63.5492 29.8377 63.4067 29.8174 63.2358 29.8174C63.1219 29.8174 63.0283 29.8825 62.9551 30.0127C62.89 30.1348 62.8371 30.2975 62.7964 30.501C62.7557 30.6963 62.7272 30.9201 62.7109 31.1724C62.6947 31.4246 62.6825 31.681 62.6743 31.9414C62.6662 32.1937 62.6621 32.4419 62.6621 32.686C62.6621 32.922 62.654 33.1214 62.6377 33.2842C62.5889 33.9596 62.5034 34.6473 62.3813 35.3472C62.2674 36.0389 62.1698 36.7754 62.0884 37.5566V37.5933C62.0884 37.6258 62.0884 37.6584 62.0884 37.6909C62.0965 37.7153 62.1006 37.7397 62.1006 37.7642C62.1006 37.7886 62.0884 37.8252 62.064 37.874C62.0477 37.9147 62.0233 37.9351 61.9907 37.9351C61.9907 38.0246 61.9948 38.0815 62.0029 38.106C62.0192 38.1222 62.0273 38.1589 62.0273 38.2158C62.0273 38.2402 62.0233 38.2728 62.0151 38.3135C62.0151 38.3542 62.007 38.4071 61.9907 38.4722C61.95 38.6512 61.9175 38.8628 61.8931 39.1069C61.8687 39.3429 61.8442 39.5952 61.8198 39.8638C61.8035 40.1323 61.7873 40.4049 61.771 40.6816C61.7629 40.9583 61.7466 41.2269 61.7222 41.4873C61.7384 41.4873 61.7547 41.4914 61.771 41.4995C61.7873 41.4995 61.8035 41.4995 61.8198 41.4995C61.9744 41.4995 62.125 41.4792 62.2715 41.4385C62.4261 41.3896 62.5726 41.3652 62.7109 41.3652C62.8574 41.3652 62.9836 41.4059 63.0894 41.4873C63.0649 41.6012 63.012 41.6826 62.9307 41.7314C62.8493 41.7803 62.7516 41.8169 62.6377 41.8413C62.5238 41.8657 62.4017 41.882 62.2715 41.8901C62.1413 41.8983 62.0192 41.9105 61.9053 41.9268C61.889 41.9349 61.8646 41.9552 61.832 41.9878C61.8076 42.0122 61.771 42.0244 61.7222 42.0244C61.6001 42.0326 61.4658 42.061 61.3193 42.1099C61.181 42.1587 61.0386 42.2116 60.8921 42.2686C60.7456 42.3255 60.5991 42.3784 60.4526 42.4272C60.3143 42.4761 60.18 42.5005 60.0498 42.5005C59.9603 42.5005 59.887 42.4883 59.8301 42.4639C59.7731 42.4476 59.7121 42.4395 59.647 42.4395C59.5575 42.4395 59.4964 42.4598 59.4639 42.5005C59.4313 42.5412 59.3947 42.5656 59.354 42.5737C59.1831 42.6144 58.9837 42.6714 58.7559 42.7446C58.528 42.826 58.3286 42.8667 58.1577 42.8667C58.0682 42.8667 57.9868 42.8504 57.9136 42.8179C57.8485 42.8016 57.7956 42.769 57.7549 42.7202C57.7142 42.6795 57.702 42.6266 57.7183 42.5615C57.702 42.5127 57.6938 42.4761 57.6938 42.4517C57.6938 42.3459 57.7386 42.2645 57.8281 42.2075C57.9258 42.1506 58.0438 42.1058 58.1821 42.0732C58.3286 42.0407 58.4873 42.0163 58.6582 42C58.8372 41.9756 59.0081 41.9512 59.1709 41.9268C59.1872 41.9268 59.2075 41.9308 59.2319 41.939C59.2563 41.939 59.2889 41.939 59.3296 41.939C59.5412 41.939 59.6836 41.825 59.7568 41.5972C59.8382 41.3693 59.9155 40.995 59.9888 40.4741C59.9888 40.466 59.9928 40.4497 60.001 40.4253C60.0091 40.3927 60.0376 40.348 60.0864 40.291C60.0864 40.2015 60.0701 40.1283 60.0376 40.0713C60.005 40.0062 59.9888 39.9411 59.9888 39.876C59.9888 39.8516 60.001 39.8271 60.0254 39.8027C60.0498 39.7702 60.0701 39.7214 60.0864 39.6562C60.1027 39.4772 60.1271 39.2778 60.1597 39.0581C60.2004 38.8302 60.241 38.5902 60.2817 38.3379C60.3224 38.0856 60.359 37.8252 60.3916 37.5566C60.4242 37.2799 60.4445 37.0073 60.4526 36.7388C60.4526 36.5597 60.4567 36.3929 60.4648 36.2383C60.473 36.0837 60.4974 35.9168 60.5381 35.7378C60.5462 35.7052 60.5503 35.6808 60.5503 35.6646C60.5584 35.6401 60.5625 35.6157 60.5625 35.5913C60.5625 35.5425 60.5584 35.4855 60.5503 35.4204C60.5422 35.3553 60.5381 35.2454 60.5381 35.0908C60.5381 34.8467 60.5625 34.57 60.6113 34.2607C60.6602 33.9515 60.6968 33.626 60.7212 33.2842C60.7375 33.04 60.7537 32.8162 60.77 32.6128C60.7863 32.4093 60.8026 32.21 60.8188 32.0146C60.8351 31.8112 60.8555 31.6077 60.8799 31.4043C60.9124 31.1927 60.9491 30.9648 60.9897 30.7207C61.006 30.6556 61.0304 30.5417 61.063 30.3789C61.0955 30.2161 61.1118 30.0778 61.1118 29.9639C61.1118 29.8499 61.0752 29.7808 61.002 29.7563C60.9368 29.7238 60.8595 29.7075 60.77 29.7075C60.4526 29.7075 60.1882 29.7726 59.9766 29.9028C59.765 30.033 59.5819 30.1755 59.4272 30.3301C59.2726 30.4766 59.1343 30.6149 59.0122 30.7451C58.8901 30.8753 58.7559 30.9404 58.6094 30.9404C58.5687 30.9404 58.528 30.9323 58.4873 30.916C58.4548 30.8997 58.4385 30.855 58.4385 30.7817C58.4385 30.619 58.4873 30.4806 58.585 30.3667C58.6826 30.2446 58.7843 30.1226 58.8901 30.0005C58.9308 29.9598 58.9756 29.9435 59.0244 29.9517C59.0814 29.9517 59.1302 29.9354 59.1709 29.9028C59.236 29.8377 59.297 29.7482 59.354 29.6343C59.411 29.5122 59.472 29.4186 59.5371 29.3535C59.5778 29.3128 59.6226 29.2965 59.6714 29.3047C59.7202 29.3128 59.769 29.3006 59.8179 29.2681L59.9888 29.0728C60.0295 29.0239 60.0661 28.9751 60.0986 28.9263C60.1393 28.8774 60.1637 28.8368 60.1719 28.8042C60.1719 28.7961 60.2004 28.7554 60.2573 28.6821C60.3143 28.6089 60.3794 28.5316 60.4526 28.4502C60.5259 28.3607 60.5951 28.2834 60.6602 28.2183C60.7334 28.145 60.7822 28.1003 60.8066 28.084C60.8799 28.0433 60.9653 28.0189 61.063 28.0107C61.1688 27.9945 61.2705 27.9863 61.3682 27.9863C61.474 27.9782 61.5716 27.9701 61.6611 27.9619C61.7588 27.9538 61.8402 27.9334 61.9053 27.9009C61.9704 27.8602 62.007 27.8195 62.0151 27.7788C62.0314 27.73 62.0843 27.6486 62.1738 27.5347C62.2145 27.4777 62.2796 27.4289 62.3691 27.3882C62.4587 27.3475 62.5156 27.3068 62.54 27.2661C62.54 27.258 62.5482 27.1969 62.5645 27.083C62.5807 26.9609 62.6092 26.8307 62.6499 26.6924C62.6987 26.554 62.7598 26.4279 62.833 26.314C62.9144 26.2 63.0202 26.1431 63.1504 26.1431C63.2155 26.1431 63.2684 26.1797 63.3091 26.2529C63.3498 26.318 63.3986 26.3506 63.4556 26.3506V26.3994C63.4556 26.4889 63.4352 26.6029 63.3945 26.7412C63.3538 26.8714 63.3091 27.0057 63.2603 27.144C63.2114 27.2743 63.1667 27.3963 63.126 27.5103C63.0853 27.616 63.0649 27.6852 63.0649 27.7178C63.0649 27.8398 63.1138 27.9375 63.2114 28.0107C63.3091 28.0758 63.4393 28.1369 63.6021 28.1938C63.7729 28.2508 63.9683 28.3037 64.188 28.3525C64.4159 28.4014 64.6559 28.4624 64.9082 28.5356C65.0791 28.5845 65.2215 28.6374 65.3354 28.6943C65.4575 28.7513 65.5715 28.8123 65.6772 28.8774C65.783 28.9344 65.8888 28.9954 65.9946 29.0605C66.1004 29.1257 66.2225 29.1948 66.3608 29.2681C66.4015 29.2843 66.4626 29.2965 66.5439 29.3047C66.6335 29.3047 66.6986 29.321 66.7393 29.3535C66.8288 29.4186 66.902 29.5041 66.959 29.6099C67.0241 29.7157 67.1014 29.8133 67.1909 29.9028C67.2886 30.0005 67.4066 30.1144 67.5449 30.2446C67.6914 30.3748 67.8338 30.505 67.9722 30.6353C68.1105 30.7573 68.2285 30.8753 68.3262 30.9893C68.4238 31.1032 68.4727 31.1886 68.4727 31.2456C68.4727 31.2782 68.4686 31.3188 68.4604 31.3677C68.4523 31.4084 68.4482 31.445 68.4482 31.4775C68.4482 31.5182 68.4604 31.5508 68.4849 31.5752C68.5093 31.5996 68.5215 31.6322 68.5215 31.6729C68.5215 31.738 68.4971 31.8112 68.4482 31.8926C68.4076 31.9658 68.3506 32.0635 68.2773 32.1855C68.2448 32.2507 68.2326 32.3117 68.2407 32.3687C68.2489 32.4256 68.2326 32.4867 68.1919 32.5518C68.1675 32.5924 68.1268 32.6128 68.0698 32.6128C68.021 32.6047 67.9966 32.625 67.9966 32.6738C67.9966 32.6901 67.9966 32.7104 67.9966 32.7349C68.0047 32.7593 68.0088 32.7796 68.0088 32.7959C68.0088 32.861 67.964 32.9261 67.8745 32.9912C67.785 33.0563 67.6792 33.1255 67.5571 33.1987C67.4432 33.2638 67.3293 33.333 67.2153 33.4062C67.1095 33.4795 67.0404 33.5568 67.0078 33.6382V33.6504C67.0078 33.6667 67.0078 33.6911 67.0078 33.7236C67.016 33.748 67.02 33.7684 67.02 33.7847C67.02 33.8091 67.0037 33.8335 66.9712 33.8579C66.9386 33.8742 66.902 33.8905 66.8613 33.9067C66.8206 33.923 66.7799 33.9393 66.7393 33.9556C66.6986 33.9718 66.666 33.9881 66.6416 34.0044C66.6009 34.0288 66.5521 34.0776 66.4951 34.1509C66.4463 34.216 66.3893 34.2892 66.3242 34.3706C66.2673 34.4438 66.2103 34.5171 66.1533 34.5903C66.0964 34.6554 66.0475 34.7043 66.0068 34.7368C65.958 34.7775 65.8766 34.8223 65.7627 34.8711C65.6488 34.9199 65.5348 34.9728 65.4209 35.0298C65.307 35.0868 65.2052 35.1478 65.1157 35.2129C65.0343 35.2699 64.9937 35.3268 64.9937 35.3838C64.9937 35.4245 65.0303 35.5059 65.1035 35.6279C65.1849 35.7419 65.2703 35.8599 65.3599 35.9819C65.4657 36.1284 65.5877 36.2871 65.7261 36.458C65.7261 36.5231 65.7952 36.6411 65.9336 36.812C66.0719 36.9829 66.2306 37.1742 66.4097 37.3857C66.5968 37.5892 66.7799 37.7926 66.959 37.9961C67.1462 38.1914 67.2845 38.3501 67.374 38.4722C67.4147 38.521 67.4595 38.5658 67.5083 38.6064C67.5571 38.639 67.6019 38.6878 67.6426 38.7529C67.6833 38.7936 67.6995 38.8384 67.6914 38.8872C67.6914 38.936 67.7036 38.9808 67.728 39.0215C67.7524 39.0378 67.785 39.054 67.8257 39.0703C67.8745 39.0785 67.9071 39.0907 67.9233 39.1069C68.1512 39.4243 68.3343 39.6847 68.4727 39.8882C68.611 40.0835 68.7249 40.2422 68.8145 40.3643C68.9121 40.4782 68.9976 40.5555 69.0708 40.5962C69.1522 40.6369 69.2458 40.6572 69.3516 40.6572C69.4818 40.6572 69.6242 40.6165 69.7788 40.5352C69.9416 40.4538 70.0881 40.3602 70.2183 40.2544C70.3566 40.1405 70.4705 40.0306 70.5601 39.9248C70.6577 39.819 70.7065 39.7417 70.7065 39.6929V39.6562C70.7065 39.64 70.7106 39.6156 70.7188 39.583C70.735 39.5423 70.7757 39.4772 70.8408 39.3877C70.8978 39.2982 70.9507 39.2127 70.9995 39.1313C71.0565 39.05 71.1297 39.0093 71.2192 39.0093C71.2599 39.0093 71.3128 39.0378 71.3779 39.0947C71.443 39.1517 71.4756 39.2493 71.4756 39.3877Z" fill="black"/>
<path d="M46 66V47.625H52.425V50.4H48.7V55.225H51.2V58H48.7V66H46ZM57.1195 66.2C56.3612 66.2 55.7112 66.025 55.1695 65.675C54.6362 65.325 54.2279 64.85 53.9445 64.25C53.6612 63.65 53.5195 62.975 53.5195 62.225V47.625H56.2195V62.225C56.2195 62.5833 56.2904 62.9 56.432 63.175C56.5737 63.4417 56.8029 63.575 57.1195 63.575C57.4529 63.575 57.6862 63.4417 57.8195 63.175C57.9529 62.9 58.0195 62.5833 58.0195 62.225V47.625H60.7195V62.225C60.7195 62.975 60.5737 63.65 60.282 64.25C59.9987 64.85 59.5862 65.325 59.0445 65.675C58.5112 66.025 57.8695 66.2 57.1195 66.2ZM64.5236 66V50.4H61.9736V47.625H69.7736V50.4H67.2236V66H64.5236ZM74.6244 66.2C73.8661 66.2 73.2161 66.025 72.6744 65.675C72.1411 65.325 71.7327 64.85 71.4494 64.25C71.1661 63.65 71.0244 62.975 71.0244 62.225V47.625H73.7244V62.225C73.7244 62.5833 73.7952 62.9 73.9369 63.175C74.0786 63.4417 74.3077 63.575 74.6244 63.575C74.9577 63.575 75.1911 63.4417 75.3244 63.175C75.4577 62.9 75.5244 62.5833 75.5244 62.225V47.625H78.2244V62.225C78.2244 62.975 78.0786 63.65 77.7869 64.25C77.5036 64.85 77.0911 65.325 76.5494 65.675C76.0161 66.025 75.3744 66.2 74.6244 66.2ZM80.2285 66V47.625H82.9285C84.5452 47.625 85.7368 48.075 86.5035 48.975C87.2702 49.8667 87.6535 51.1833 87.6535 52.925C87.6535 53.9583 87.4702 54.8542 87.1035 55.6125C86.7452 56.3625 86.3077 56.9125 85.791 57.2625L87.6285 66H84.9285L83.4035 58.25H82.9285V66H80.2285ZM82.9285 55.75C83.4285 55.75 83.8243 55.6417 84.116 55.425C84.4077 55.2 84.616 54.8833 84.741 54.475C84.866 54.0667 84.9285 53.5833 84.9285 53.025C84.9285 52.15 84.7827 51.4792 84.491 51.0125C84.2077 50.5375 83.6868 50.3 82.9285 50.3V55.75ZM89.1641 66V47.625H95.3391V50.4H91.8641V55.35H94.3641V58.05H91.8641V63.225H95.3391V66H89.1641Z" fill="#2057A9"/>
</svg>
