<svg width="194" height="133" viewBox="0 0 194 133" fill="none" xmlns="http://www.w3.org/2000/svg">
<path d="M2 44V7.25H7.05L12.05 26.4L12.5 28.1H12.8V7.25H17.75V44H13.2L7.7 24.85L7.25 23.15H6.95V44H2ZM20.6016 44L26.1516 7.25H32.7516L38.3016 44H33.0516L32.0516 36.5H26.8516L25.8516 44H20.6016ZM27.6016 30.8H31.3016L29.7516 18.45L29.6016 16.5H29.3016L29.1516 18.45L27.6016 30.8ZM42.2699 44V12.8H37.1699V7.25H52.7699V12.8H47.6699V44H42.2699ZM62.4715 44.4C60.9548 44.4 59.6548 44.05 58.5715 43.35C57.5048 42.65 56.6882 41.7 56.1215 40.5C55.5548 39.3 55.2715 37.95 55.2715 36.45V7.25H60.6715V36.45C60.6715 37.1667 60.8132 37.8 61.0965 38.35C61.3798 38.8833 61.8382 39.15 62.4715 39.15C63.1382 39.15 63.6048 38.8833 63.8715 38.35C64.1382 37.8 64.2715 37.1667 64.2715 36.45V7.25H69.6715V36.45C69.6715 37.95 69.3798 39.3 68.7965 40.5C68.2298 41.7 67.4048 42.65 66.3215 43.35C65.2548 44.05 63.9715 44.4 62.4715 44.4ZM73.6797 44V7.25H79.0797C82.313 7.25 84.6964 8.15 86.2297 9.95C87.763 11.7333 88.5297 14.3667 88.5297 17.85C88.5297 19.9167 88.163 21.7083 87.4297 23.225C86.713 24.725 85.838 25.825 84.8047 26.525L88.4797 44H83.0797L80.0297 28.5H79.0797V44H73.6797ZM79.0797 23.5C80.0797 23.5 80.8714 23.2833 81.4547 22.85C82.038 22.4 82.4547 21.7667 82.7047 20.95C82.9547 20.1333 83.0797 19.1667 83.0797 18.05C83.0797 16.3 82.788 14.9583 82.2047 14.025C81.638 13.075 80.5964 12.6 79.0797 12.6V23.5ZM91.5508 44V7.25H103.901V12.8H96.9508V22.7H101.951V28.1H96.9508V38.45H103.901V44H91.5508Z" fill="#44AC3B"/>
<path d="M90.8018 48.8271C90.8669 48.9085 90.8994 49.0225 90.8994 49.1689C90.8994 49.4456 90.8424 49.7223 90.7285 49.999C90.6309 50.2594 90.5169 50.4954 90.3867 50.707C90.2565 50.9186 90.1344 51.0895 90.0205 51.2197C89.9229 51.3499 89.874 51.4232 89.874 51.4395C89.874 51.4883 89.874 51.5452 89.874 51.6104C89.8903 51.6755 89.8984 51.7324 89.8984 51.7812C89.8984 51.8626 89.8659 51.9521 89.8008 52.0498C89.752 52.1475 89.695 52.237 89.6299 52.3184C89.5648 52.3997 89.4997 52.473 89.4346 52.5381C89.3695 52.6032 89.3369 52.6439 89.3369 52.6602C89.2718 52.8229 89.2393 53.002 89.2393 53.1973C89.2393 53.3763 89.2311 53.5553 89.2148 53.7344C89.1986 53.8971 89.1497 54.0518 89.0684 54.1982C88.987 54.3285 88.8324 54.4261 88.6045 54.4912C88.5394 54.3773 88.5068 54.2471 88.5068 54.1006C88.5068 53.9704 88.5231 53.832 88.5557 53.6855C88.5882 53.5228 88.6045 53.36 88.6045 53.1973V53.0264C88.4906 52.8148 88.401 52.5869 88.3359 52.3428C88.2871 52.0986 88.2139 51.8789 88.1162 51.6836C88.0186 51.4883 87.8802 51.3255 87.7012 51.1953C87.5221 51.0651 87.2617 51 86.9199 51C86.5293 51 86.1224 51.0407 85.6992 51.1221C85.276 51.1872 84.9098 51.2197 84.6006 51.2197C84.1774 51.2197 83.7461 51.1628 83.3066 51.0488C82.8672 50.9349 82.4684 50.8779 82.1104 50.8779C81.6872 50.8779 81.3779 51.0651 81.1826 51.4395C80.9873 51.8138 80.849 52.3428 80.7676 53.0264C80.735 53.2054 80.6699 53.4007 80.5723 53.6123C80.4909 53.8076 80.4339 54.0355 80.4014 54.2959C80.32 54.7842 80.2956 55.2887 80.3281 55.8096C80.3607 56.3304 80.3281 56.8024 80.2305 57.2256C80.1654 57.5186 80.0921 57.7546 80.0107 57.9336C79.9456 58.1126 79.8805 58.2835 79.8154 58.4463C79.7503 58.609 79.6934 58.8044 79.6445 59.0322C79.612 59.2601 79.5957 59.5693 79.5957 59.96C79.5957 60.139 79.6038 60.2936 79.6201 60.4238C79.6364 60.554 79.6608 60.6436 79.6934 60.6924C79.7585 60.7738 79.8968 60.847 80.1084 60.9121C80.32 60.9772 80.5804 61.0342 80.8896 61.083C81.1989 61.1156 81.5326 61.1481 81.8906 61.1807C82.265 61.1969 82.6312 61.2051 82.9893 61.2051C83.3799 61.2051 83.7461 61.1969 84.0879 61.1807C84.446 61.1481 84.7389 61.1074 84.9668 61.0586C85.1621 61.0098 85.333 60.9284 85.4795 60.8145C85.626 60.6842 85.7562 60.5866 85.8701 60.5215C85.9678 60.4564 86.0654 60.4238 86.1631 60.4238C86.2607 60.4238 86.3503 60.3913 86.4316 60.3262C86.513 60.2448 86.6025 60.139 86.7002 60.0088C86.7979 59.8623 86.9118 59.724 87.042 59.5938C87.1722 59.4473 87.3187 59.3252 87.4814 59.2275C87.6605 59.1136 87.8639 59.0566 88.0918 59.0566H88.2383C88.1895 59.5286 88.0755 59.9437 87.8965 60.3018C87.7174 60.6436 87.4896 60.9609 87.2129 61.2539C86.9525 61.5306 86.6595 61.791 86.334 62.0352C86.0085 62.263 85.6748 62.4827 85.333 62.6943C85.154 62.8083 84.9505 62.9548 84.7227 63.1338C84.5111 63.3128 84.2913 63.4674 84.0635 63.5977H83.9658C83.8031 63.5977 83.624 63.5732 83.4287 63.5244C83.2334 63.4593 83.0218 63.4268 82.7939 63.4268H82.3789C82.1999 63.4268 82.0615 63.4186 81.9639 63.4023C81.8825 63.3861 81.793 63.3779 81.6953 63.3779C81.5814 63.3779 81.443 63.3861 81.2803 63.4023C81.1338 63.4186 80.9059 63.4268 80.5967 63.4268C80.4339 63.4268 80.2874 63.4268 80.1572 63.4268C80.027 63.4105 79.9212 63.4023 79.8398 63.4023C79.6445 63.4023 79.4818 63.5732 79.3516 63.915C79.2214 64.2568 79.1074 64.6963 79.0098 65.2334C78.9121 65.7542 78.8226 66.3402 78.7412 66.9912C78.6761 67.626 78.6191 68.2445 78.5703 68.8467C78.5378 69.4326 78.5052 69.9697 78.4727 70.458C78.4401 70.93 78.4157 71.2637 78.3994 71.459C78.3994 71.4915 78.3669 71.6543 78.3018 71.9473C78.2367 72.2402 78.1634 72.582 78.082 72.9727C78.0169 73.347 77.9518 73.7214 77.8867 74.0957C77.8379 74.4538 77.8135 74.7305 77.8135 74.9258C77.8135 75.0397 77.8298 75.1048 77.8623 75.1211C77.9111 75.1211 78.0088 75.1211 78.1553 75.1211C78.2855 75.1211 78.432 75.1211 78.5947 75.1211C78.7738 75.1048 78.9528 75.0967 79.1318 75.0967C79.4899 75.0967 79.8154 75.1292 80.1084 75.1943C80.4176 75.2594 80.5723 75.4222 80.5723 75.6826C80.5723 75.8291 80.5072 75.943 80.377 76.0244C80.2467 76.1221 80.0758 76.1953 79.8643 76.2441C79.6527 76.293 79.4085 76.3255 79.1318 76.3418C78.8714 76.3581 78.6029 76.3662 78.3262 76.3662H77.0811C76.609 76.3662 76.1045 76.4232 75.5674 76.5371C75.0465 76.6673 74.5176 76.7324 73.9805 76.7324C73.8177 76.7324 73.6631 76.7243 73.5166 76.708C73.3864 76.708 73.2562 76.708 73.126 76.708C72.7842 76.708 72.4342 76.7568 72.0762 76.8545C71.7181 76.9684 71.3763 77.0254 71.0508 77.0254C70.8555 77.0254 70.6927 76.9928 70.5625 76.9277C70.5625 76.651 70.7008 76.415 70.9775 76.2197C71.2705 76.0407 71.6693 75.9512 72.1738 75.9512H72.5889C73.126 75.9512 73.5166 75.7721 73.7607 75.4141C74.0049 75.0397 74.1758 74.5921 74.2734 74.0713C74.3711 73.5342 74.4199 72.9645 74.4199 72.3623C74.4362 71.7438 74.485 71.1904 74.5664 70.7021C74.599 70.5231 74.6722 70.3441 74.7861 70.165C74.9001 69.986 74.957 69.7826 74.957 69.5547C74.957 69.4408 74.9489 69.335 74.9326 69.2373C74.9163 69.1234 74.9082 69.0176 74.9082 68.9199C74.9082 68.7897 74.9733 68.6839 75.1035 68.6025C75.2337 68.5049 75.2988 68.4154 75.2988 68.334C75.3802 68.1061 75.4128 67.9108 75.3965 67.748C75.3802 67.569 75.4128 67.3411 75.4941 67.0645C75.543 66.918 75.5837 66.7227 75.6162 66.4785C75.665 66.2344 75.7057 65.974 75.7383 65.6973C75.7871 65.4206 75.8197 65.1357 75.8359 64.8428C75.8685 64.5498 75.8848 64.2812 75.8848 64.0371C75.8848 63.9557 75.8685 63.8906 75.8359 63.8418C75.8197 63.793 75.7464 63.7686 75.6162 63.7686C75.3232 63.7686 75.0872 63.8174 74.9082 63.915C74.7292 64.0127 74.5583 64.1266 74.3955 64.2568C74.249 64.3708 74.0781 64.4766 73.8828 64.5742C73.6875 64.6719 73.4352 64.7207 73.126 64.7207C73.0609 64.7207 73.0039 64.7126 72.9551 64.6963C72.9225 64.6637 72.9062 64.5986 72.9062 64.501C72.9062 64.2568 72.9876 64.029 73.1504 63.8174C73.3294 63.5895 73.5329 63.3942 73.7607 63.2314C73.9886 63.0524 74.2083 62.9059 74.4199 62.792C74.6478 62.6618 74.8187 62.5641 74.9326 62.499C74.9814 62.4827 75.0628 62.4421 75.1768 62.377C75.307 62.2956 75.4372 62.2142 75.5674 62.1328C75.7139 62.0514 75.8441 61.9619 75.958 61.8643C76.0719 61.7666 76.1533 61.6771 76.2021 61.5957C76.2347 61.5143 76.2591 61.3923 76.2754 61.2295C76.2917 61.0505 76.2998 60.8633 76.2998 60.668C76.3161 60.4564 76.3242 60.2448 76.3242 60.0332C76.3405 59.8053 76.3649 59.6019 76.3975 59.4229C76.4788 58.902 76.5602 58.4382 76.6416 58.0312C76.723 57.6081 76.7637 57.2581 76.7637 56.9814C76.7637 56.7861 76.7555 56.5827 76.7393 56.3711C76.7393 56.1595 76.7393 55.9398 76.7393 55.7119C76.7393 55.0934 76.7881 54.4749 76.8857 53.8564C76.9834 53.2217 77.0322 52.6683 77.0322 52.1963C77.0322 51.9196 76.9997 51.7161 76.9346 51.5859C76.8695 51.4395 76.7881 51.3337 76.6904 51.2686C76.609 51.2035 76.5358 51.1628 76.4707 51.1465C76.4056 51.1139 76.373 51.0732 76.373 51.0244H76.3486C76.2021 51.0244 76.0394 51.0895 75.8604 51.2197C75.6976 51.3337 75.5267 51.3906 75.3477 51.3906C75.1035 51.3906 74.8512 51.3662 74.5908 51.3174C74.3304 51.2523 74.2002 51.1058 74.2002 50.8779C74.2002 50.471 74.3467 50.2432 74.6396 50.1943C74.9489 50.1455 75.3395 50.1211 75.8115 50.1211C75.9743 50.1211 76.1452 50.1292 76.3242 50.1455C76.5033 50.1455 76.6904 50.1455 76.8857 50.1455C77.3415 50.1455 77.8949 50.0967 78.5459 49.999C79.2132 49.9014 79.8968 49.7956 80.5967 49.6816C81.3128 49.5514 82.0127 49.4375 82.6963 49.3398C83.3962 49.2422 84.0146 49.1934 84.5518 49.1934C84.7796 49.1934 84.9831 49.2015 85.1621 49.2178C85.3574 49.2178 85.5365 49.2178 85.6992 49.2178C85.9108 49.2178 86.1956 49.1934 86.5537 49.1445C86.9118 49.0794 87.2943 49.0143 87.7012 48.9492C88.1243 48.8678 88.5638 48.8027 89.0195 48.7539C89.4753 48.6888 89.9147 48.6562 90.3379 48.6562C90.5495 48.6562 90.7041 48.7132 90.8018 48.8271ZM114.923 61.4736C114.874 62.1084 114.776 62.7188 114.63 63.3047C114.483 63.8743 114.288 64.444 114.044 65.0137C113.816 65.5833 113.531 66.1774 113.189 66.7959C112.848 67.3981 112.457 68.0492 112.018 68.749C111.985 68.8304 111.961 68.9281 111.944 69.042C111.928 69.1396 111.896 69.2292 111.847 69.3105C111.733 69.4408 111.578 69.5628 111.383 69.6768C111.188 69.7907 111.033 69.9128 110.919 70.043C110.854 70.1243 110.821 70.2139 110.821 70.3115C110.821 70.4092 110.797 70.4987 110.748 70.5801C110.667 70.694 110.536 70.8161 110.357 70.9463C110.178 71.0602 109.999 71.1823 109.82 71.3125C109.755 71.3776 109.715 71.459 109.698 71.5566C109.698 71.6543 109.658 71.7031 109.576 71.7031C109.544 71.7031 109.503 71.7031 109.454 71.7031C109.405 71.6868 109.365 71.6787 109.332 71.6787C109.234 71.6787 109.153 71.7601 109.088 71.9229C109.039 72.0693 108.982 72.1751 108.917 72.2402C108.836 72.2891 108.738 72.3135 108.624 72.3135C108.526 72.3135 108.437 72.346 108.355 72.4111C108.095 72.6064 107.867 72.8262 107.672 73.0703C107.477 73.2982 107.224 73.5016 106.915 73.6807C106.834 73.7132 106.736 73.7376 106.622 73.7539C106.524 73.7702 106.443 73.8109 106.378 73.876C106.297 73.9085 106.248 73.9818 106.231 74.0957C106.231 74.1934 106.191 74.2422 106.109 74.2422C106.077 74.2422 106.036 74.2422 105.987 74.2422C105.938 74.2259 105.898 74.2178 105.865 74.2178C105.784 74.2178 105.727 74.2829 105.694 74.4131C105.678 74.5433 105.629 74.6084 105.548 74.6084C105.515 74.6084 105.475 74.6084 105.426 74.6084C105.393 74.5921 105.361 74.584 105.328 74.584C105.23 74.584 105.149 74.6654 105.084 74.8281C105.035 74.9909 104.978 75.0967 104.913 75.1455C104.75 75.2594 104.547 75.3164 104.303 75.3164C104.075 75.3001 103.855 75.3652 103.644 75.5117C103.562 75.5443 103.497 75.6012 103.448 75.6826C103.416 75.7477 103.351 75.8047 103.253 75.8535C102.944 76.0326 102.586 76.179 102.179 76.293C101.772 76.4232 101.308 76.4883 100.787 76.4883C100.478 76.4883 100.152 76.4639 99.8105 76.415C99.6641 76.2686 99.4932 76.1628 99.2979 76.0977C99.1025 76.0488 98.891 76 98.6631 75.9512C98.4515 75.8861 98.2236 75.8128 97.9795 75.7314C97.7354 75.6501 97.4912 75.5117 97.2471 75.3164C97.0192 75.1374 96.8076 74.9502 96.6123 74.7549C96.4333 74.5433 96.2217 74.3643 95.9775 74.2178C95.8473 74.1527 95.709 74.1038 95.5625 74.0713C95.4323 74.0225 95.3265 73.9574 95.2451 73.876C95.1637 73.7946 95.1312 73.7051 95.1475 73.6074C95.1637 73.5098 95.1312 73.4121 95.0498 73.3145C95.0173 73.2656 94.9521 73.2331 94.8545 73.2168C94.7731 73.2005 94.7161 73.168 94.6836 73.1191C94.6022 73.0052 94.5452 72.8913 94.5127 72.7773C94.4801 72.6471 94.4232 72.5251 94.3418 72.4111C94.1465 72.167 93.9349 71.9717 93.707 71.8252C93.4954 71.6624 93.3408 71.4915 93.2432 71.3125C93.1618 71.166 93.0723 70.9626 92.9746 70.7021C92.8932 70.4255 92.8037 70.1325 92.7061 69.8232C92.6247 69.4977 92.5352 69.1803 92.4375 68.8711C92.3398 68.5456 92.2422 68.2689 92.1445 68.041C91.8678 67.4388 91.7295 66.6087 91.7295 65.5508C91.7295 65.1276 91.7458 64.6719 91.7783 64.1836C91.8109 63.6953 91.8597 63.207 91.9248 62.7188C92.0062 62.2305 92.0876 61.7585 92.1689 61.3027C92.2666 60.8307 92.3805 60.3994 92.5107 60.0088C92.6084 59.6833 92.6654 59.3577 92.6816 59.0322C92.6979 58.6904 92.763 58.4056 92.877 58.1777C92.8932 58.1289 92.9421 58.0801 93.0234 58.0312C93.1211 57.9661 93.1943 57.8929 93.2432 57.8115C93.292 57.6976 93.3164 57.6081 93.3164 57.543C93.3164 57.4616 93.349 57.3721 93.4141 57.2744C93.4466 57.2093 93.5036 57.1442 93.585 57.0791C93.6826 57.014 93.7477 56.957 93.7803 56.9082C93.8291 56.8268 93.8535 56.7373 93.8535 56.6396C93.8698 56.542 93.9105 56.4525 93.9756 56.3711C94.057 56.2409 94.1709 56.1188 94.3174 56.0049C94.4801 55.891 94.6022 55.7689 94.6836 55.6387C94.7487 55.5573 94.7812 55.4678 94.7812 55.3701C94.7812 55.2562 94.8138 55.1585 94.8789 55.0771C94.9115 55.0283 94.9684 55.0039 95.0498 55.0039C95.1475 54.9876 95.2126 54.9551 95.2451 54.9062C95.3102 54.8249 95.3428 54.7354 95.3428 54.6377C95.3428 54.54 95.3753 54.4505 95.4404 54.3691C95.5381 54.2227 95.6927 54.0599 95.9043 53.8809C96.1322 53.6855 96.3356 53.4821 96.5146 53.2705C96.8402 52.9124 97.1657 52.5706 97.4912 52.2451C97.833 51.9196 98.1829 51.6104 98.541 51.3174C98.9154 51.0081 99.306 50.707 99.7129 50.4141C100.136 50.1048 100.592 49.7793 101.08 49.4375C101.406 49.1771 101.739 48.9411 102.081 48.7295C102.358 48.5505 102.667 48.3714 103.009 48.1924C103.351 48.0133 103.676 47.8831 103.985 47.8018C104.002 47.8018 104.018 47.7773 104.034 47.7285C104.05 47.6634 104.099 47.6309 104.181 47.6309C104.327 47.5983 104.539 47.5739 104.815 47.5576C105.092 47.5251 105.377 47.5088 105.67 47.5088C106.126 47.5088 106.541 47.5495 106.915 47.6309C107.224 47.7122 107.542 47.7773 107.867 47.8262C108.209 47.875 108.551 47.9482 108.893 48.0459C109.251 48.1273 109.609 48.2493 109.967 48.4121C110.341 48.5586 110.715 48.7783 111.09 49.0713C111.171 49.1364 111.236 49.2422 111.285 49.3887C111.35 49.5189 111.472 49.5921 111.651 49.6084C111.83 49.6247 111.977 49.7061 112.091 49.8525C112.221 49.999 112.327 50.1862 112.408 50.4141C112.506 50.6257 112.587 50.8617 112.652 51.1221C112.734 51.3662 112.823 51.5941 112.921 51.8057C112.953 51.8545 113.1 52.1312 113.36 52.6357C113.637 53.1403 113.914 53.7751 114.19 54.54C114.239 54.6702 114.272 54.8249 114.288 55.0039C114.304 55.1829 114.337 55.3294 114.386 55.4434C114.418 55.541 114.475 55.6305 114.557 55.7119C114.654 55.777 114.719 55.8747 114.752 56.0049C114.833 56.4118 114.898 56.9163 114.947 57.5186C114.996 58.1208 115.021 58.7555 115.021 59.4229C115.021 59.7646 115.012 60.1146 114.996 60.4727C114.98 60.8145 114.955 61.1481 114.923 61.4736ZM112.018 58.7393C111.969 58.3324 111.847 57.9255 111.651 57.5186C111.456 57.0954 111.334 56.7699 111.285 56.542C111.188 56.1514 111.049 55.8096 110.87 55.5166C110.691 55.2074 110.504 54.9307 110.309 54.6865C110.13 54.4424 109.967 54.2308 109.82 54.0518C109.69 53.8564 109.625 53.6774 109.625 53.5146C109.625 53.4658 109.625 53.4089 109.625 53.3438C109.641 53.2786 109.649 53.2217 109.649 53.1729C109.649 53.1077 109.552 52.9694 109.356 52.7578C109.161 52.5462 108.95 52.3509 108.722 52.1719C108.608 52.0905 108.461 52.0417 108.282 52.0254C108.103 51.9928 107.949 51.9196 107.818 51.8057C107.688 51.708 107.582 51.5778 107.501 51.415C107.42 51.2523 107.338 51.1383 107.257 51.0732C106.948 50.8291 106.516 50.6419 105.963 50.5117C105.41 50.3815 104.872 50.3164 104.352 50.3164C104.173 50.3164 103.977 50.3327 103.766 50.3652C103.554 50.3815 103.448 50.4385 103.448 50.5361C102.862 50.6175 102.366 50.707 101.959 50.8047C101.568 50.9023 101.227 51.0163 100.934 51.1465C100.657 51.2604 100.413 51.3906 100.201 51.5371C100.006 51.6836 99.8105 51.8382 99.6152 52.001C99.5339 52.0498 99.4688 52.1068 99.4199 52.1719C99.3874 52.237 99.3304 52.2939 99.249 52.3428C99.07 52.473 98.8991 52.5706 98.7363 52.6357C98.5898 52.7008 98.4596 52.7904 98.3457 52.9043C98.2643 52.9857 98.2236 53.0752 98.2236 53.1729C98.2399 53.2705 98.2236 53.36 98.1748 53.4414C98.1097 53.5228 98.012 53.5879 97.8818 53.6367C97.7516 53.6693 97.6621 53.7262 97.6133 53.8076C97.5645 53.889 97.5238 53.9867 97.4912 54.1006C97.4749 54.2145 97.4505 54.304 97.418 54.3691C97.1738 54.9062 96.9297 55.3864 96.6855 55.8096C96.4577 56.2165 96.2786 56.5827 96.1484 56.9082C96.0508 57.1523 95.9694 57.4779 95.9043 57.8848C95.8392 58.2917 95.7822 58.723 95.7334 59.1787C95.7008 59.6182 95.6683 60.0576 95.6357 60.4971C95.6195 60.9202 95.6032 61.2783 95.5869 61.5713C95.5869 61.6689 95.5869 61.7422 95.5869 61.791C95.6032 61.8236 95.6113 61.8805 95.6113 61.9619V62.1816C95.6276 62.3607 95.6439 62.5153 95.6602 62.6455C95.6764 62.7594 95.6927 62.8652 95.709 62.9629C95.7253 63.0443 95.7415 63.1257 95.7578 63.207C95.7741 63.2884 95.7822 63.3861 95.7822 63.5C95.7822 63.5326 95.7741 63.5977 95.7578 63.6953C95.7415 63.7767 95.6927 63.8906 95.6113 64.0371C95.6276 64.2161 95.6846 64.3952 95.7822 64.5742C95.8799 64.7533 95.945 64.9323 95.9775 65.1113C96.0101 65.2904 96.0264 65.4531 96.0264 65.5996C96.0264 65.7298 96.0264 65.86 96.0264 65.9902V66.4297C96.0264 66.6738 96.0508 66.8529 96.0996 66.9668C96.1647 67.0807 96.238 67.2516 96.3193 67.4795C96.3844 67.6585 96.4251 67.8376 96.4414 68.0166C96.4577 68.1956 96.4821 68.3258 96.5146 68.4072C96.5635 68.5212 96.6449 68.6025 96.7588 68.6514C96.889 68.7002 96.9948 68.7979 97.0762 68.9443C97.1576 69.0745 97.2145 69.2292 97.2471 69.4082C97.2796 69.5872 97.3366 69.7337 97.418 69.8477C97.4505 69.8965 97.5075 69.929 97.5889 69.9453C97.6865 69.9616 97.7516 69.9941 97.7842 70.043C97.8493 70.1243 97.8818 70.2139 97.8818 70.3115C97.8981 70.4092 97.9307 70.4987 97.9795 70.5801C98.012 70.6289 98.069 70.6615 98.1504 70.6777C98.248 70.694 98.3132 70.7266 98.3457 70.7754C98.4108 70.8242 98.4352 70.9137 98.4189 71.0439C98.4189 71.1579 98.4515 71.2474 98.5166 71.3125C98.6631 71.459 98.891 71.5892 99.2002 71.7031C99.5257 71.8008 99.7861 71.9147 99.9814 72.0449C100.063 72.0938 100.12 72.1833 100.152 72.3135C100.201 72.4437 100.266 72.5332 100.348 72.582C100.429 72.6471 100.519 72.6878 100.616 72.7041C100.73 72.7204 100.828 72.7448 100.909 72.7773C101.316 73.0378 101.658 73.2168 101.935 73.3145C102.211 73.3958 102.504 73.4365 102.813 73.4365C103.106 73.4365 103.448 73.3877 103.839 73.29C104.229 73.1924 104.604 73.0703 104.962 72.9238C105.336 72.7773 105.662 72.6309 105.938 72.4844C106.231 72.3216 106.435 72.1751 106.549 72.0449C106.549 72.0286 106.565 72.0205 106.598 72.0205C106.63 72.0205 106.671 72.0286 106.72 72.0449C106.785 72.0612 106.834 72.0693 106.866 72.0693C106.948 72.0693 107.062 71.988 107.208 71.8252C107.354 71.6624 107.501 71.4753 107.647 71.2637C107.794 71.0521 107.932 70.8486 108.062 70.6533C108.209 70.4417 108.307 70.2952 108.355 70.2139C108.502 70.0023 108.665 69.7826 108.844 69.5547C109.039 69.3105 109.226 69.0745 109.405 68.8467C109.584 68.6025 109.747 68.3665 109.894 68.1387C110.04 67.9108 110.138 67.6911 110.187 67.4795C110.268 67.1702 110.349 66.9668 110.431 66.8691C110.512 66.7552 110.618 66.5924 110.748 66.3809C110.846 66.2018 110.927 66.0391 110.992 65.8926C111.057 65.7461 111.114 65.5996 111.163 65.4531C111.212 65.3066 111.261 65.152 111.31 64.9893C111.358 64.8102 111.407 64.6068 111.456 64.3789C111.505 64.1836 111.529 63.9883 111.529 63.793C111.529 63.5977 111.529 63.4023 111.529 63.207C111.546 63.0117 111.57 62.8327 111.603 62.6699C111.651 62.4909 111.733 62.3281 111.847 62.1816C111.928 61.8561 111.985 61.4899 112.018 61.083C112.05 60.6598 112.066 60.2448 112.066 59.8379C112.066 59.6426 112.066 59.4554 112.066 59.2764C112.066 59.0811 112.05 58.902 112.018 58.7393ZM143.951 70.7754C143.951 70.9219 143.886 71.0765 143.756 71.2393C143.642 71.3857 143.504 71.5404 143.341 71.7031C143.194 71.8496 143.04 72.0042 142.877 72.167C142.714 72.3135 142.584 72.4518 142.486 72.582C142.405 72.696 142.34 72.8424 142.291 73.0215C142.258 73.2005 142.201 73.3633 142.12 73.5098C141.925 73.8841 141.664 74.2096 141.339 74.4863C141.013 74.763 140.663 75.1048 140.289 75.5117C140.143 75.6745 140.004 75.8372 139.874 76C139.76 76.1628 139.638 76.3092 139.508 76.4395C139.394 76.5859 139.256 76.6999 139.093 76.7812C138.946 76.8626 138.767 76.9033 138.556 76.9033C138.328 76.9033 138.149 76.8708 138.019 76.8057C137.905 76.7406 137.791 76.6592 137.677 76.5615C137.579 76.4801 137.465 76.3906 137.335 76.293C137.221 76.1953 137.058 76.1139 136.847 76.0488C136.603 75.9837 136.277 75.7396 135.87 75.3164C135.479 74.8932 135.073 74.348 134.649 73.6807C134.617 73.6318 134.576 73.6156 134.527 73.6318C134.495 73.6481 134.479 73.6074 134.479 73.5098C134.479 73.4121 134.405 73.3063 134.259 73.1924C134.129 73.0622 133.982 72.9401 133.819 72.8262C133.673 72.696 133.526 72.582 133.38 72.4844C133.25 72.3867 133.185 72.3053 133.185 72.2402C133.185 72.1426 133.136 72.0531 133.038 71.9717C132.957 71.874 132.851 71.7845 132.721 71.7031C132.607 71.6055 132.485 71.516 132.354 71.4346C132.241 71.3369 132.151 71.2393 132.086 71.1416C131.972 70.9137 131.834 70.7021 131.671 70.5068C131.508 70.3115 131.337 70.1243 131.158 69.9453C130.979 69.75 130.8 69.5628 130.621 69.3838C130.442 69.1885 130.271 68.9769 130.108 68.749C130.011 68.6188 129.929 68.4805 129.864 68.334C129.799 68.1875 129.75 68.0898 129.718 68.041C129.506 67.7806 129.221 67.512 128.863 67.2354C128.505 66.9424 128.155 66.6494 127.813 66.3564C127.472 66.0472 127.179 65.7461 126.935 65.4531C126.69 65.1439 126.568 64.8509 126.568 64.5742C126.568 64.4928 126.601 64.3789 126.666 64.2324C126.747 64.0859 126.894 64.0127 127.105 64.0127C127.154 64.0127 127.203 64.0208 127.252 64.0371C127.301 64.0371 127.341 64.0371 127.374 64.0371C127.407 64.0208 127.488 63.9801 127.618 63.915C127.765 63.8337 127.911 63.7441 128.058 63.6465C128.237 63.5488 128.432 63.4268 128.644 63.2803C128.953 63.1012 129.36 62.849 129.864 62.5234C130.385 62.1816 130.922 61.791 131.476 61.3516C132.029 60.9121 132.558 60.4401 133.062 59.9355C133.567 59.431 133.974 58.9102 134.283 58.373C134.397 58.194 134.503 58.0557 134.601 57.958C134.715 57.8604 134.771 57.6813 134.771 57.4209C134.771 57.2581 134.715 57.0628 134.601 56.835C134.503 56.6071 134.365 56.3792 134.186 56.1514C134.023 55.9235 133.836 55.7038 133.624 55.4922C133.429 55.2643 133.225 55.069 133.014 54.9062C132.883 54.7923 132.721 54.7028 132.525 54.6377C132.33 54.5563 132.184 54.4668 132.086 54.3691C131.939 54.1738 131.85 53.946 131.817 53.6855C131.801 53.4089 131.712 53.2135 131.549 53.0996C131.451 53.0182 131.256 52.9857 130.963 53.002C130.67 53.002 130.442 52.9694 130.279 52.9043C130.23 52.8717 130.174 52.8148 130.108 52.7334C130.06 52.6357 129.994 52.5706 129.913 52.5381C129.815 52.473 129.718 52.4323 129.62 52.416C129.539 52.3997 129.449 52.3753 129.352 52.3428C129.319 52.3428 129.27 52.3021 129.205 52.2207C129.14 52.1393 129.034 52.0579 128.888 51.9766C128.741 51.8952 128.554 51.8219 128.326 51.7568C128.098 51.6755 127.813 51.6348 127.472 51.6348C127.244 51.6348 127.057 51.765 126.91 52.0254C126.78 52.2695 126.674 52.5951 126.593 53.002C126.511 53.3926 126.454 53.8402 126.422 54.3447C126.389 54.8493 126.365 55.362 126.349 55.8828C126.332 56.3874 126.324 56.8838 126.324 57.3721C126.324 57.8441 126.308 58.2428 126.275 58.5684C126.178 59.9193 126.007 61.2946 125.763 62.6943C125.535 64.0778 125.34 65.5508 125.177 67.1133V67.1865C125.177 67.2516 125.177 67.3167 125.177 67.3818C125.193 67.4307 125.201 67.4795 125.201 67.5283C125.201 67.5771 125.177 67.6504 125.128 67.748C125.095 67.8294 125.047 67.8701 124.981 67.8701C124.981 68.0492 124.99 68.1631 125.006 68.2119C125.038 68.2445 125.055 68.3177 125.055 68.4316C125.055 68.4805 125.047 68.5456 125.03 68.627C125.03 68.7083 125.014 68.8141 124.981 68.9443C124.9 69.3024 124.835 69.7256 124.786 70.2139C124.737 70.6859 124.688 71.1904 124.64 71.7275C124.607 72.2646 124.575 72.8099 124.542 73.3633C124.526 73.9167 124.493 74.4538 124.444 74.9746C124.477 74.9746 124.509 74.9827 124.542 74.999C124.575 74.999 124.607 74.999 124.64 74.999C124.949 74.999 125.25 74.9583 125.543 74.877C125.852 74.7793 126.145 74.7305 126.422 74.7305C126.715 74.7305 126.967 74.8118 127.179 74.9746C127.13 75.2025 127.024 75.3652 126.861 75.4629C126.699 75.5605 126.503 75.6338 126.275 75.6826C126.048 75.7314 125.803 75.764 125.543 75.7803C125.283 75.7965 125.038 75.821 124.811 75.8535C124.778 75.8698 124.729 75.9105 124.664 75.9756C124.615 76.0244 124.542 76.0488 124.444 76.0488C124.2 76.0651 123.932 76.1221 123.639 76.2197C123.362 76.3174 123.077 76.4232 122.784 76.5371C122.491 76.651 122.198 76.7568 121.905 76.8545C121.629 76.9521 121.36 77.001 121.1 77.001C120.921 77.001 120.774 76.9766 120.66 76.9277C120.546 76.8952 120.424 76.8789 120.294 76.8789C120.115 76.8789 119.993 76.9196 119.928 77.001C119.863 77.0824 119.789 77.1312 119.708 77.1475C119.366 77.2288 118.967 77.3428 118.512 77.4893C118.056 77.652 117.657 77.7334 117.315 77.7334C117.136 77.7334 116.974 77.7008 116.827 77.6357C116.697 77.6032 116.591 77.5381 116.51 77.4404C116.428 77.359 116.404 77.2533 116.437 77.123C116.404 77.0254 116.388 76.9521 116.388 76.9033C116.388 76.6917 116.477 76.529 116.656 76.415C116.852 76.3011 117.088 76.2116 117.364 76.1465C117.657 76.0814 117.975 76.0326 118.316 76C118.674 75.9512 119.016 75.9023 119.342 75.8535C119.374 75.8535 119.415 75.8617 119.464 75.8779C119.513 75.8779 119.578 75.8779 119.659 75.8779C120.082 75.8779 120.367 75.6501 120.514 75.1943C120.676 74.7386 120.831 73.9899 120.978 72.9482C120.978 72.932 120.986 72.8994 121.002 72.8506C121.018 72.7855 121.075 72.696 121.173 72.582C121.173 72.403 121.14 72.2565 121.075 72.1426C121.01 72.0124 120.978 71.8822 120.978 71.752C120.978 71.7031 121.002 71.6543 121.051 71.6055C121.1 71.5404 121.14 71.4427 121.173 71.3125C121.205 70.9544 121.254 70.5557 121.319 70.1162C121.401 69.6605 121.482 69.1803 121.563 68.6758C121.645 68.1712 121.718 67.6504 121.783 67.1133C121.848 66.5599 121.889 66.0146 121.905 65.4775C121.905 65.1195 121.913 64.7858 121.93 64.4766C121.946 64.1673 121.995 63.8337 122.076 63.4756C122.092 63.4105 122.101 63.3617 122.101 63.3291C122.117 63.2803 122.125 63.2314 122.125 63.1826C122.125 63.085 122.117 62.971 122.101 62.8408C122.084 62.7106 122.076 62.4909 122.076 62.1816C122.076 61.6934 122.125 61.14 122.223 60.5215C122.32 59.903 122.394 59.252 122.442 58.5684C122.475 58.0801 122.507 57.6325 122.54 57.2256C122.573 56.8187 122.605 56.4199 122.638 56.0293C122.67 55.6224 122.711 55.2155 122.76 54.8086C122.825 54.3854 122.898 53.9297 122.979 53.4414C123.012 53.3112 123.061 53.0833 123.126 52.7578C123.191 52.4323 123.224 52.1556 123.224 51.9277C123.224 51.6999 123.15 51.5615 123.004 51.5127C122.874 51.4476 122.719 51.415 122.54 51.415C121.905 51.415 121.376 51.5452 120.953 51.8057C120.53 52.0661 120.164 52.3509 119.854 52.6602C119.545 52.9531 119.269 53.2298 119.024 53.4902C118.78 53.7507 118.512 53.8809 118.219 53.8809C118.137 53.8809 118.056 53.8646 117.975 53.832C117.91 53.7995 117.877 53.71 117.877 53.5635C117.877 53.238 117.975 52.9613 118.17 52.7334C118.365 52.4893 118.569 52.2451 118.78 52.001C118.862 51.9196 118.951 51.887 119.049 51.9033C119.163 51.9033 119.26 51.8708 119.342 51.8057C119.472 51.6755 119.594 51.4964 119.708 51.2686C119.822 51.0244 119.944 50.8372 120.074 50.707C120.156 50.6257 120.245 50.5931 120.343 50.6094C120.44 50.6257 120.538 50.6012 120.636 50.5361L120.978 50.1455C121.059 50.0479 121.132 49.9502 121.197 49.8525C121.279 49.7549 121.327 49.6735 121.344 49.6084C121.344 49.5921 121.401 49.5107 121.515 49.3643C121.629 49.2178 121.759 49.0632 121.905 48.9004C122.052 48.7214 122.19 48.5667 122.32 48.4365C122.467 48.29 122.564 48.2005 122.613 48.168C122.76 48.0866 122.931 48.0378 123.126 48.0215C123.338 47.9889 123.541 47.9727 123.736 47.9727C123.948 47.9564 124.143 47.9401 124.322 47.9238C124.518 47.9076 124.68 47.8669 124.811 47.8018C124.941 47.7204 125.014 47.639 125.03 47.5576C125.063 47.46 125.169 47.2972 125.348 47.0693C125.429 46.9554 125.559 46.8577 125.738 46.7764C125.917 46.695 126.031 46.6136 126.08 46.5322C126.08 46.516 126.096 46.3939 126.129 46.166C126.161 45.9219 126.218 45.6615 126.3 45.3848C126.397 45.1081 126.52 44.8558 126.666 44.6279C126.829 44.4001 127.04 44.2861 127.301 44.2861C127.431 44.2861 127.537 44.3594 127.618 44.5059C127.7 44.6361 127.797 44.7012 127.911 44.7012V44.7988C127.911 44.9779 127.87 45.2057 127.789 45.4824C127.708 45.7428 127.618 46.0114 127.521 46.2881C127.423 46.5485 127.333 46.7926 127.252 47.0205C127.171 47.2321 127.13 47.3704 127.13 47.4355C127.13 47.6797 127.228 47.875 127.423 48.0215C127.618 48.1517 127.879 48.2738 128.204 48.3877C128.546 48.5016 128.937 48.6074 129.376 48.7051C129.832 48.8027 130.312 48.9248 130.816 49.0713C131.158 49.1689 131.443 49.2747 131.671 49.3887C131.915 49.5026 132.143 49.6247 132.354 49.7549C132.566 49.8688 132.778 49.9909 132.989 50.1211C133.201 50.2513 133.445 50.3896 133.722 50.5361C133.803 50.5687 133.925 50.5931 134.088 50.6094C134.267 50.6094 134.397 50.6419 134.479 50.707C134.658 50.8372 134.804 51.0081 134.918 51.2197C135.048 51.4313 135.203 51.6266 135.382 51.8057C135.577 52.001 135.813 52.2288 136.09 52.4893C136.383 52.7497 136.668 53.0101 136.944 53.2705C137.221 53.5146 137.457 53.7507 137.652 53.9785C137.848 54.2064 137.945 54.3773 137.945 54.4912C137.945 54.5563 137.937 54.6377 137.921 54.7354C137.905 54.8167 137.896 54.89 137.896 54.9551C137.896 55.0365 137.921 55.1016 137.97 55.1504C138.019 55.1992 138.043 55.2643 138.043 55.3457C138.043 55.4759 137.994 55.6224 137.896 55.7852C137.815 55.9316 137.701 56.127 137.555 56.3711C137.49 56.5013 137.465 56.6234 137.481 56.7373C137.498 56.8512 137.465 56.9733 137.384 57.1035C137.335 57.1849 137.254 57.2256 137.14 57.2256C137.042 57.2093 136.993 57.25 136.993 57.3477C136.993 57.3802 136.993 57.4209 136.993 57.4697C137.009 57.5186 137.018 57.5592 137.018 57.5918C137.018 57.722 136.928 57.8522 136.749 57.9824C136.57 58.1126 136.358 58.251 136.114 58.3975C135.886 58.5277 135.659 58.666 135.431 58.8125C135.219 58.959 135.081 59.1136 135.016 59.2764V59.3008C135.016 59.3333 135.016 59.3822 135.016 59.4473C135.032 59.4961 135.04 59.5368 135.04 59.5693C135.04 59.6182 135.007 59.667 134.942 59.7158C134.877 59.7484 134.804 59.7809 134.723 59.8135C134.641 59.846 134.56 59.8786 134.479 59.9111C134.397 59.9437 134.332 59.9762 134.283 60.0088C134.202 60.0576 134.104 60.1553 133.99 60.3018C133.893 60.432 133.779 60.5785 133.648 60.7412C133.535 60.8877 133.421 61.0342 133.307 61.1807C133.193 61.3109 133.095 61.4085 133.014 61.4736C132.916 61.555 132.753 61.6445 132.525 61.7422C132.298 61.8398 132.07 61.9456 131.842 62.0596C131.614 62.1735 131.41 62.2956 131.231 62.4258C131.069 62.5397 130.987 62.6536 130.987 62.7676C130.987 62.849 131.061 63.0117 131.207 63.2559C131.37 63.4837 131.541 63.7197 131.72 63.9639C131.931 64.2568 132.175 64.5742 132.452 64.916C132.452 65.0462 132.59 65.2822 132.867 65.624C133.144 65.9658 133.461 66.3483 133.819 66.7715C134.194 67.1784 134.56 67.5853 134.918 67.9922C135.292 68.3828 135.569 68.7002 135.748 68.9443C135.829 69.042 135.919 69.1315 136.017 69.2129C136.114 69.278 136.204 69.3757 136.285 69.5059C136.367 69.5872 136.399 69.6768 136.383 69.7744C136.383 69.8721 136.407 69.9616 136.456 70.043C136.505 70.0755 136.57 70.1081 136.651 70.1406C136.749 70.1569 136.814 70.1813 136.847 70.2139C137.302 70.8486 137.669 71.3695 137.945 71.7764C138.222 72.167 138.45 72.4844 138.629 72.7285C138.824 72.9564 138.995 73.111 139.142 73.1924C139.304 73.2738 139.492 73.3145 139.703 73.3145C139.964 73.3145 140.248 73.2331 140.558 73.0703C140.883 72.9076 141.176 72.7204 141.437 72.5088C141.713 72.2809 141.941 72.0612 142.12 71.8496C142.315 71.638 142.413 71.4834 142.413 71.3857V71.3125C142.413 71.2799 142.421 71.2311 142.438 71.166C142.47 71.0846 142.551 70.9544 142.682 70.7754C142.796 70.5964 142.901 70.4255 142.999 70.2627C143.113 70.0999 143.259 70.0186 143.438 70.0186C143.52 70.0186 143.626 70.0755 143.756 70.1895C143.886 70.3034 143.951 70.4987 143.951 70.7754Z" fill="black"/>
<path d="M89 120V83.25H101.85V88.8H94.4V98.45H99.4V104H94.4V120H89ZM111.239 120.4C109.722 120.4 108.422 120.05 107.339 119.35C106.272 118.65 105.456 117.7 104.889 116.5C104.322 115.3 104.039 113.95 104.039 112.45V83.25H109.439V112.45C109.439 113.167 109.581 113.8 109.864 114.35C110.147 114.883 110.606 115.15 111.239 115.15C111.906 115.15 112.372 114.883 112.639 114.35C112.906 113.8 113.039 113.167 113.039 112.45V83.25H118.439V112.45C118.439 113.95 118.147 115.3 117.564 116.5C116.997 117.7 116.172 118.65 115.089 119.35C114.022 120.05 112.739 120.4 111.239 120.4ZM126.047 120V88.8H120.947V83.25H136.547V88.8H131.447V120H126.047ZM146.249 120.4C144.732 120.4 143.432 120.05 142.349 119.35C141.282 118.65 140.465 117.7 139.899 116.5C139.332 115.3 139.049 113.95 139.049 112.45V83.25H144.449V112.45C144.449 113.167 144.59 113.8 144.874 114.35C145.157 114.883 145.615 115.15 146.249 115.15C146.915 115.15 147.382 114.883 147.649 114.35C147.915 113.8 148.049 113.167 148.049 112.45V83.25H153.449V112.45C153.449 113.95 153.157 115.3 152.574 116.5C152.007 117.7 151.182 118.65 150.099 119.35C149.032 120.05 147.749 120.4 146.249 120.4ZM157.457 120V83.25H162.857C166.09 83.25 168.474 84.15 170.007 85.95C171.54 87.7333 172.307 90.3667 172.307 93.85C172.307 95.9167 171.94 97.7083 171.207 99.225C170.49 100.725 169.615 101.825 168.582 102.525L172.257 120H166.857L163.807 104.5H162.857V120H157.457ZM162.857 99.5C163.857 99.5 164.649 99.2833 165.232 98.85C165.815 98.4 166.232 97.7667 166.482 96.95C166.732 96.1333 166.857 95.1667 166.857 94.05C166.857 92.3 166.565 90.9583 165.982 90.025C165.415 89.075 164.374 88.6 162.857 88.6V99.5ZM175.328 120V83.25H187.678V88.8H180.728V98.7H185.728V104.1H180.728V114.45H187.678V120H175.328Z" fill="#2057A9"/>
</svg>
